<svg xmlns="http://www.w3.org/2000/svg" width="24" height="24" viewBox="0 0 24 24" fill="none">
  <path d="M22.4288 5.22756C22.83 4.93506 22.92 4.37256 22.6275 3.97131C22.335 3.57006 21.7725 3.48006 21.3713 3.77256L18.5775 5.80506L18.2063 5.55756C17.4675 5.06256 16.5975 4.80006 15.7088 4.80006H8.08879C7.08754 4.80006 6.12004 5.13381 5.33629 5.74131L2.62879 3.77256C2.22754 3.48006 1.66504 3.57006 1.37254 3.97131C1.08004 4.37256 1.17004 4.93506 1.57129 5.22756L4.87129 7.62756C5.23129 7.88631 5.72254 7.84881 6.03754 7.53756L6.18379 7.39131C6.69004 6.88506 7.37629 6.60006 8.09254 6.60006H9.82879L6.39004 10.0388C5.80504 10.6238 5.80504 11.5726 6.39004 12.1613L6.42004 12.1913C8.17504 13.9501 11.025 13.9501 12.7838 12.1913L13.8 11.1751L17.4675 14.8426C18.0525 15.4276 18.0525 16.3763 17.4675 16.9651L17.1 17.3326L15.9375 16.1701C15.585 15.8176 15.015 15.8176 14.6663 16.1701C14.3175 16.5226 14.3138 17.0926 14.6663 17.4413L15.7163 18.4913C15.06 18.8813 14.3213 19.1176 13.5563 19.1851L11.7375 17.3626C11.385 17.0101 10.815 17.0101 10.4663 17.3626C10.1175 17.7151 10.1138 18.2851 10.4663 18.6338L11.0288 19.1963H10.8863C9.53254 19.1963 8.23504 18.6601 7.27879 17.7038L2.43754 12.8626C2.08504 12.5101 1.51504 12.5101 1.16629 12.8626C0.817541 13.2151 0.813791 13.7851 1.16629 14.1338L6.00754 18.9788C7.30129 20.2726 9.05629 21.0001 10.8863 21.0001H12.8288L12.8663 21.0376L12.9038 21.0001H13.1175C14.9475 21.0001 16.7025 20.2726 17.9963 18.9788L18.7425 18.2326C18.7875 18.1876 18.8288 18.1463 18.87 18.1013C18.8963 18.0826 18.9188 18.0601 18.9413 18.0376L22.8375 14.1376C23.19 13.7851 23.19 13.2151 22.8375 12.8663C22.485 12.5176 21.915 12.5138 21.5663 12.8663L19.5488 14.8838C19.3913 14.4038 19.125 13.9501 18.7425 13.5676L14.4375 9.26256C14.085 8.91006 13.515 8.91006 13.1663 9.26256L11.5125 10.9163C10.5188 11.9101 8.94379 11.9663 7.88629 11.0888L11.5875 7.38756C12.09 6.88506 12.7725 6.60006 13.485 6.59631H15.7163C16.2488 6.59631 16.77 6.75381 17.2125 7.05006L18.1013 7.65006C18.4163 7.86006 18.825 7.8488 19.1288 7.62756L22.4288 5.22756Z" fill="#020D17"/>
</svg>