<svg xmlns="http://www.w3.org/2000/svg" width="115" height="30" viewBox="0 0 115 30" fill="none">
  <path d="M33.7746 27.6334C33.0635 28.3534 32.2339 28.7134 31.1672 28.7134C30.1006 28.7134 29.2709 28.3534 28.5598 27.6334C27.8487 26.9134 27.4932 26.0734 27.4932 24.9934C27.4932 23.9134 27.8487 23.0734 28.5598 22.3534C29.2709 21.6334 30.1006 21.2734 31.1672 21.2734C32.2339 21.2734 33.0635 21.6334 33.7746 22.3534C34.4858 23.0734 34.8413 23.9134 34.8413 24.9934C34.8413 26.0734 34.4858 26.9134 33.7746 27.6334ZM29.2709 27.0334C29.745 27.5134 30.4561 27.8734 31.1672 27.8734C31.8783 27.8734 32.5895 27.6334 33.0635 27.0334C33.5376 26.5534 33.8932 25.8334 33.8932 24.9934C33.8932 24.1534 33.6561 23.4334 33.0635 22.9534C32.5895 22.4734 31.8783 22.1134 31.1672 22.1134C30.4561 22.1134 29.745 22.3534 29.2709 22.9534C28.7969 23.4334 28.4413 24.1534 28.4413 24.9934C28.5598 25.8334 28.7969 26.5534 29.2709 27.0334Z" fill="white"/>
  <path d="M36.1455 28.5927V21.5127H38.5159C39.1085 21.5127 39.5825 21.7527 40.0566 22.1127C40.5307 22.4727 40.7677 23.0727 40.7677 23.6727C40.7677 24.1527 40.6492 24.6327 40.2937 24.9927C39.9381 25.3527 39.5825 25.5927 39.1085 25.7127L41.1233 28.5927H40.0566L38.1603 25.7127H37.2122V28.5927H36.1455ZM36.9751 24.8727H38.3974C38.7529 24.8727 39.1085 24.7527 39.3455 24.5127C39.5825 24.2727 39.7011 23.9127 39.7011 23.5527C39.7011 23.1927 39.5825 22.9527 39.3455 22.7127C39.1085 22.4727 38.7529 22.3527 38.3974 22.3527H36.8566V24.8727H36.9751Z" fill="white"/>
  <path d="M47.2859 29.0734L46.8118 28.3534C46.3378 28.5934 45.7452 28.7134 45.1526 28.7134C44.0859 28.7134 43.2563 28.3534 42.5452 27.6334C41.8341 26.9134 41.4785 26.0734 41.4785 24.9934C41.4785 23.9134 41.8341 23.0734 42.5452 22.3534C43.2563 21.6334 44.0859 21.2734 45.1526 21.2734C46.2193 21.2734 47.0489 21.6334 47.76 22.3534C48.4711 23.0734 48.8267 23.9134 48.8267 24.9934C48.8267 26.1934 48.4711 27.0334 47.6415 27.8734L48.1156 28.5934L47.2859 29.0734ZM45.1526 27.8734C45.5081 27.8734 45.9822 27.7534 46.3378 27.6334L45.5081 26.4334L46.2193 25.9534L47.0489 27.1534C47.6415 26.6734 47.8785 25.9534 47.8785 25.1134C47.8785 24.2734 47.6415 23.5534 47.0489 23.0734C46.5748 22.5934 45.8637 22.2334 45.1526 22.2334C44.4415 22.2334 43.7304 22.4734 43.2563 23.0734C42.7822 23.5534 42.4267 24.2734 42.4267 25.1134C42.4267 25.9534 42.6637 26.6734 43.2563 27.1534C43.7304 27.6334 44.4415 27.8734 45.1526 27.8734Z" fill="white"/>
  <path d="M49.1816 28.5927L51.7891 21.5127H52.8557L55.4631 28.5927H54.515L53.8039 26.6727H50.8409L50.1298 28.5927H49.1816ZM51.1965 25.8327H53.5668L52.3816 22.5927L51.1965 25.8327Z" fill="white"/>
  <path d="M56.4121 28.5927V21.5127H57.3603V27.7527H60.4417V28.5927H56.4121Z" fill="white"/>
  <path d="M61.3896 28.5927V21.5127H62.3378V28.5927H61.3896Z" fill="white"/>
  <path d="M71.7004 27.6334C70.9893 28.3534 70.1597 28.7134 69.093 28.7134C68.0264 28.7134 67.1967 28.3534 66.4856 27.6334C65.7745 26.9134 65.4189 26.0734 65.4189 24.9934C65.4189 23.9134 65.7745 23.0734 66.4856 22.3534C67.1967 21.6334 68.0264 21.2734 69.093 21.2734C70.1597 21.2734 70.9893 21.6334 71.7004 22.3534C72.4115 23.0734 72.7671 23.9134 72.7671 24.9934C72.7671 26.0734 72.4115 26.9134 71.7004 27.6334ZM67.1967 27.0334C67.6708 27.5134 68.3819 27.8734 69.093 27.8734C69.8041 27.8734 70.5152 27.6334 70.9893 27.0334C71.4634 26.5534 71.8189 25.8334 71.8189 24.9934C71.8189 24.1534 71.5819 23.4334 70.9893 22.9534C70.5152 22.4734 69.8041 22.1134 69.093 22.1134C68.3819 22.1134 67.6708 22.3534 67.1967 22.9534C66.7226 23.4334 66.3671 24.1534 66.3671 24.9934C66.4856 25.8334 66.7226 26.5534 67.1967 27.0334Z" fill="white"/>
  <path d="M73.9531 28.5927V21.5127H74.9013V27.7527H77.9828V28.5927H73.9531Z" fill="white"/>
  <path d="M78.9307 28.5927V21.5127H79.8788V28.5927H78.9307Z" fill="white"/>
  <path d="M81.5371 28.5927V21.5127H82.6038L86.0408 27.0327V25.7127V21.5127H86.989V28.5927H86.0408L82.4853 22.8327V24.1527V28.5927H81.5371Z" fill="white"/>
  <path d="M95.2859 25.3555C95.2859 26.3155 95.0489 27.1555 94.4563 27.7555C93.7452 28.4755 92.9155 28.8355 91.8489 28.8355C90.7822 28.8355 89.9526 28.4755 89.2415 27.7555C88.5304 27.0355 88.1748 26.1955 88.1748 25.1155C88.1748 24.0355 88.5304 23.1955 89.2415 22.4755C89.9526 21.7555 90.7822 21.3955 91.8489 21.3955C92.323 21.3955 92.797 21.5155 93.2711 21.6355C93.7452 21.8755 94.1007 22.1155 94.3378 22.4755L93.7452 23.0755C93.2711 22.4755 92.6785 22.2355 91.8489 22.2355C91.1378 22.2355 90.4267 22.4755 89.9526 23.0755C89.36 23.5555 89.123 24.2755 89.123 25.1155C89.123 25.9555 89.36 26.6755 89.9526 27.1555C90.5452 27.6355 91.1378 27.9955 91.8489 27.9955C92.6785 27.9955 93.2711 27.7555 93.8637 27.1555C94.2193 26.7955 94.4563 26.3155 94.4563 25.7155H91.8489V24.8755H95.2859C95.2859 24.9955 95.2859 25.1155 95.2859 25.3555Z" fill="white"/>
  <path d="M17.0578 13.8449C17.0702 12.8708 17.3257 11.9156 17.8007 11.0683C18.2757 10.2209 18.9546 9.50904 19.7743 8.99879C19.2536 8.24577 18.5666 7.62607 17.7679 7.18891C16.9693 6.75174 16.0809 6.50915 15.1735 6.4804C13.2377 6.27468 11.3611 7.65321 10.3746 7.65321C9.36912 7.65321 7.85035 6.50083 6.21489 6.5349C5.15704 6.5695 4.12607 6.88097 3.22245 7.43894C2.31882 7.99692 1.57336 8.78238 1.05869 9.71879C-1.17075 13.627 0.492208 19.3707 2.62783 22.5297C3.69632 24.0767 4.94508 25.8046 6.57906 25.7433C8.17801 25.6762 8.77519 24.711 10.7053 24.711C12.6174 24.711 13.1777 25.7433 14.8448 25.7044C16.5606 25.6762 17.6416 24.1506 18.6726 22.589C19.4403 21.4868 20.031 20.2686 20.423 18.9795C19.4262 18.5527 18.5755 17.8381 17.9771 16.9251C17.3787 16.012 17.0589 14.9408 17.0578 13.8449Z" fill="white"/>
  <path d="M13.9085 4.40325C14.844 3.26618 15.3049 1.80468 15.1933 0.329102C13.7641 0.481091 12.4439 1.17271 11.4957 2.26615C11.0321 2.80032 10.6771 3.42177 10.4509 4.09496C10.2247 4.76814 10.1317 5.47988 10.1773 6.18947C10.8922 6.19692 11.5994 6.04003 12.2457 5.73063C12.892 5.42123 13.4606 4.96738 13.9085 4.40325Z" fill="white"/>
  <path d="M37.2694 10.8181H31.8129L30.5026 14.7356H28.1914L33.3597 0.241674H35.7609L40.9292 14.7356H38.5786L37.2694 10.8181ZM32.378 9.0103H36.7032L34.571 2.65241H34.5114L32.378 9.0103Z" fill="white"/>
  <path d="M52.0909 9.45255C52.0909 12.7364 50.355 14.8462 47.7354 14.8462C47.0718 14.8813 46.4119 14.7265 45.8311 14.3996C45.2504 14.0726 44.7723 13.5866 44.4516 12.9974H44.4021V18.2314H42.2598V4.16836H44.3334V5.92596H44.3728C44.7082 5.3395 45.1944 4.85607 45.7796 4.5271C46.3647 4.19814 47.0271 4.03595 47.696 4.0578C50.3449 4.05781 52.0909 6.17786 52.0909 9.45255ZM49.889 9.45255C49.889 7.31313 48.797 5.90658 47.1309 5.90658C45.4941 5.90658 44.3931 7.34275 44.3931 9.45255C44.3931 11.5817 45.4941 13.0076 47.1309 13.0076C48.797 13.0076 49.889 11.6114 49.889 9.45255Z" fill="white"/>
  <path d="M63.578 9.45255C63.578 12.7364 61.8421 14.8462 59.2225 14.8462C58.5589 14.8813 57.899 14.7265 57.3182 14.3996C56.7375 14.0726 56.2594 13.5866 55.9387 12.9974H55.8892V18.2314H53.7469V4.16837H55.8205V5.92596H55.8599C56.1953 5.3395 56.6814 4.85607 57.2666 4.52711C57.8518 4.19815 58.5141 4.03596 59.1831 4.05781C61.832 4.05781 63.578 6.17786 63.578 9.45255ZM61.3761 9.45255C61.3761 7.31313 60.2841 5.90659 58.618 5.90659C56.9812 5.90659 55.8802 7.34275 55.8802 9.45255C55.8802 11.5817 56.9812 13.0076 58.618 13.0076C60.2841 13.0076 61.3761 11.6114 61.3761 9.45255Z" fill="white"/>
  <path d="M71.17 10.6972C71.3288 12.1345 72.7078 13.0783 74.5923 13.0783C76.398 13.0783 77.6971 12.1345 77.6971 10.8385C77.6971 9.71351 76.9136 9.0399 75.0584 8.57826L73.2031 8.12575C70.5745 7.48289 69.3542 6.23821 69.3542 4.21846C69.3542 1.7177 71.5066 0 74.563 0C77.5879 0 79.6615 1.7177 79.7313 4.21846H77.5687C77.4393 2.77203 76.2584 1.89894 74.5326 1.89894C72.8068 1.89894 71.6259 2.7823 71.6259 4.06801C71.6259 5.0927 72.3802 5.69566 74.2253 6.15725L75.8024 6.54934C78.7395 7.25261 79.9598 8.44717 79.9598 10.5672C79.9598 13.2788 77.8265 14.9771 74.4335 14.9771C71.2589 14.9771 69.1155 13.3187 68.9771 10.6971L71.17 10.6972Z" fill="white"/>
  <path d="M84.5833 1.66761V4.16836H86.5679V5.88607H84.5833V11.7117C84.5833 12.6167 84.9807 13.0384 85.8531 13.0384C86.0887 13.0342 86.3239 13.0175 86.5578 12.9882V14.6957C86.1656 14.7699 85.7669 14.8035 85.3679 14.796C83.2549 14.796 82.4308 13.9924 82.4308 11.943V5.88607H80.9133V4.16836H82.4308V1.66761H84.5833Z" fill="white"/>
  <path d="M87.7174 9.45255C87.7174 6.12772 89.6514 4.03843 92.6673 4.03843C95.6933 4.03843 97.6183 6.12767 97.6183 9.45255C97.6183 12.7865 95.7034 14.8667 92.6673 14.8667C89.6322 14.8667 87.7174 12.7865 87.7174 9.45255ZM95.4355 9.45255C95.4355 7.17179 94.4032 5.82566 92.6673 5.82566C90.9314 5.82566 89.9002 7.18204 89.9002 9.45255C89.9002 11.7424 90.9314 13.0783 92.6673 13.0783C94.4032 13.0783 95.4355 11.7424 95.4355 9.45255Z" fill="white"/>
  <path d="M99.3845 4.16836H101.428V5.96697H101.477C101.616 5.40523 101.941 4.9088 102.398 4.56111C102.855 4.21343 103.416 4.0357 103.988 4.05778C104.235 4.05691 104.481 4.08406 104.722 4.13872V6.16759C104.41 6.07116 104.085 6.02689 103.759 6.03651C103.448 6.02373 103.138 6.07929 102.85 6.19937C102.562 6.31946 102.303 6.50123 102.091 6.7322C101.879 6.96317 101.718 7.23788 101.621 7.53746C101.524 7.83703 101.492 8.15439 101.527 8.46773V14.7356H99.3845L99.3845 4.16836Z" fill="white"/>
  <path d="M114.599 11.6319C114.311 13.5502 112.466 14.8667 110.105 14.8667C107.069 14.8667 105.184 12.807 105.184 9.5027C105.184 6.18812 107.079 4.03842 110.015 4.03842C112.902 4.03842 114.718 6.04677 114.718 9.2508V9.99396H107.347V10.125C107.313 10.5139 107.361 10.9057 107.488 11.2744C107.615 11.643 107.818 11.9801 108.084 12.2631C108.349 12.5462 108.671 12.7689 109.028 12.9163C109.385 13.0637 109.769 13.1325 110.155 13.1182C110.661 13.1662 111.169 13.0475 111.603 12.7797C112.037 12.5119 112.375 12.1093 112.565 11.6319L114.599 11.6319ZM107.357 8.478H112.575C112.594 8.12832 112.542 7.77839 112.421 7.45017C112.3 7.12195 112.114 6.82253 111.874 6.57069C111.633 6.31886 111.344 6.12005 111.024 5.98674C110.704 5.85343 110.361 5.7885 110.015 5.79602C109.666 5.79391 109.32 5.86178 108.997 5.9957C108.675 6.12962 108.381 6.32695 108.134 6.5763C107.887 6.82565 107.691 7.12207 107.558 7.44847C107.424 7.77487 107.356 8.12477 107.357 8.478Z" fill="white"/>
</svg>
