<svg xmlns="http://www.w3.org/2000/svg" width="24" height="24" viewBox="0 0 24 24" fill="none">
  <path d="M12.7043 19.546C12.5994 19.4414 12.5162 19.3173 12.4594 19.1805C12.4026 19.0438 12.3734 18.8971 12.3734 18.7491C12.3734 18.601 12.4026 18.4544 12.4594 18.3177C12.5162 18.1809 12.5994 18.0567 12.7043 17.9522L17.5315 13.125L3.75021 13.125C3.45184 13.125 3.16569 13.0065 2.95471 12.7955C2.74373 12.5845 2.62521 12.2984 2.62521 12C2.62521 11.7017 2.74373 11.4155 2.95471 11.2045C3.16569 10.9935 3.45184 10.875 3.75021 10.875H17.5315L12.7043 6.04596C12.4929 5.83461 12.3742 5.54797 12.3742 5.24908C12.3742 4.9502 12.4929 4.66355 12.7043 4.45221C12.9156 4.24086 13.2023 4.12213 13.5011 4.12213C13.8 4.12213 14.0867 4.24086 14.298 4.45221L21.048 11.2022C21.1529 11.3067 21.2361 11.4309 21.2929 11.5677C21.3497 11.7044 21.3789 11.851 21.3789 11.9991C21.3789 12.1471 21.3497 12.2938 21.2929 12.4305C21.2361 12.5673 21.1529 12.6914 21.048 12.796L14.298 19.546C14.1935 19.6508 14.0693 19.7341 13.9326 19.7908C13.7958 19.8476 13.6492 19.8768 13.5011 19.8768C13.3531 19.8768 13.2065 19.8476 13.0697 19.7908C12.933 19.7341 12.8088 19.6508 12.7043 19.546Z" fill="white"/>
</svg>