<svg xmlns="http://www.w3.org/2000/svg" width="366" height="277" viewBox="0 0 366 277" fill="none">
  <path d="M0 307.987V0.0124512H256.005C334.983 -1.08383 393.579 70.3568 392.996 154C393.579 238.113 334.983 309.082 256.005 307.987H0ZM45.841 272.065H242.124C243.352 272.082 244.573 272.068 245.789 272.04C252.603 271.829 258.787 271.527 265.428 270.682L154.117 141.011L193.626 217.574H115.376V90.4292H221.066C253.672 89.9762 277.703 119.47 277.621 154.003C277.589 167.729 276.028 176.976 269.511 187.503L162.936 132.522L309.837 245.496C333.18 223.64 347.409 190.431 347.153 154.003C347.602 89.8707 302.677 35.0985 242.124 35.9385H45.841V272.065Z" fill="url(#paint0_linear_1314_3213)" fill-opacity="0.04"/>
  <defs>
    <linearGradient id="paint0_linear_1314_3213" x1="196.5" y1="0" x2="196.5" y2="308" gradientUnits="userSpaceOnUse">
      <stop stop-color="white"/>
      <stop offset="0.661096" stop-color="white" stop-opacity="0"/>
    </linearGradient>
  </defs>
</svg>