<svg xmlns="http://www.w3.org/2000/svg" width="44" height="44" viewBox="0 0 44 44" fill="none">
  <path fill-rule="evenodd" clip-rule="evenodd" d="M15.3388 6.02913C15.7345 6.16521 16.1713 6.00624 16.3868 5.64768C17.4072 3.90715 19.3663 2.69971 21.5998 2.69971C23.8332 2.69971 25.7919 3.90715 26.8123 5.64768C27.0279 6.00624 27.4646 6.16478 27.8603 6.0287C29.7607 5.35176 32.0378 5.68612 33.7485 7.12166C35.4592 8.55676 36.1837 10.7414 35.8467 12.7303C35.7815 13.1433 36.0139 13.5459 36.4044 13.6958C38.2953 14.3987 39.825 16.1185 40.2125 18.3178C40.6004 20.5171 39.7515 22.6559 38.2145 23.9627C37.8991 24.2375 37.8183 24.6954 38.0214 25.0613C39.018 26.8152 39.0841 29.1156 37.9678 31.0497C36.8511 32.9838 34.8259 34.0767 32.8084 34.0897C32.3903 34.0975 32.0343 34.3964 31.9544 34.8068C31.5906 36.7914 30.1624 38.5959 28.0638 39.3601C25.9656 40.1239 23.7114 39.659 22.1575 38.3725C21.8322 38.1095 21.3674 38.1095 21.0425 38.373C19.4882 39.659 17.234 40.1239 15.1358 39.3601C13.0371 38.5959 11.6089 36.7914 11.2456 34.8068C11.1657 34.3964 10.8097 34.0975 10.3911 34.0906C8.37409 34.0767 6.34844 32.9838 5.23172 31.0497C4.11543 29.1156 4.18153 26.8152 5.17859 25.0618C5.38119 24.6959 5.30041 24.2379 4.98462 23.9636C3.44799 22.6559 2.59911 20.5171 2.98705 18.3178C3.37455 16.1185 4.90427 14.3987 6.79513 13.6963C7.18566 13.5464 7.41808 13.1437 7.35241 12.7303C7.01588 10.7414 7.74035 8.5572 9.45107 7.12166C11.1618 5.68612 13.4389 5.35175 15.3388 6.02913ZM20.3522 28.6819L30.4065 18.6271C31.4442 17.5895 31.4442 15.9072 30.4065 14.87L30.4044 14.8679C29.3667 13.8302 27.6849 13.8302 26.6473 14.8679L19.0791 22.4356C18.9948 22.5199 18.8803 22.5674 18.7611 22.5674C18.6419 22.5674 18.5274 22.5199 18.4427 22.4356L16.6378 20.6307C15.6006 19.5931 13.9184 19.5931 12.8807 20.6307L12.8786 20.6329C11.8409 21.6706 11.8409 23.3528 12.8786 24.3904L17.17 28.6819C17.5921 29.104 18.1641 29.3407 18.7611 29.3407C19.3577 29.3407 19.9301 29.1035 20.3522 28.6819Z" fill="white"/>
</svg>