<svg xmlns="http://www.w3.org/2000/svg" width="151" height="133" viewBox="0 0 151 133" fill="none">
  <path d="M80.9209 132.062C115.789 132.062 144.057 103.701 144.057 68.5924C144.057 33.4841 115.664 5.12256 80.9209 5.12256C46.053 5.12256 17.7852 33.4841 17.7852 68.5924C17.7852 103.701 46.053 132.062 80.9209 132.062Z" fill="#EAEEF9"/>
  <path d="M139.947 26.9873C142.767 26.9873 145.053 24.6939 145.053 21.8648C145.053 19.0356 142.767 16.7422 139.947 16.7422C137.128 16.7422 134.842 19.0356 134.842 21.8648C134.842 24.6939 137.128 26.9873 139.947 26.9873Z" fill="#EAEEF9"/>
  <path d="M147.418 6.99668C149.344 6.99668 150.905 5.43042 150.905 3.49834C150.905 1.56626 149.344 0 147.418 0C145.493 0 143.932 1.56626 143.932 3.49834C143.932 5.43042 145.493 6.99668 147.418 6.99668Z" fill="#EAEEF9"/>
  <path d="M21.1469 26.8624C23.0726 26.8624 24.6337 25.2961 24.6337 23.3641C24.6337 21.432 23.0726 19.8657 21.1469 19.8657C19.2212 19.8657 17.6602 21.432 17.6602 23.3641C17.6602 25.2961 19.2212 26.8624 21.1469 26.8624Z" fill="#EAEEF9"/>
  <path d="M6.47546 102.487C10.0518 102.487 12.9509 99.5777 12.9509 95.9896C12.9509 92.4014 10.0518 89.4927 6.47546 89.4927C2.89916 89.4927 0 92.4014 0 95.9896C0 99.5777 2.89916 102.487 6.47546 102.487Z" fill="#EAEEF9"/>
</svg>