<svg xmlns="http://www.w3.org/2000/svg" width="20" height="20" viewBox="0 0 20 20" fill="none">
  <path d="M10.0001 1.69971C5.41675 1.69971 1.66675 5.44137 1.66675 10.0497C1.66675 14.2164 4.71675 17.6747 8.70008 18.2997V12.4664H6.58342V10.0497H8.70008V8.20804C8.70008 6.11637 9.94175 4.96637 11.8501 4.96637C12.7584 4.96637 13.7084 5.12471 13.7084 5.12471V7.18304H12.6584C11.6251 7.18304 11.3001 7.82471 11.3001 8.48304V10.0497H13.6167L13.2417 12.4664H11.3001V18.2997C13.2638 17.9896 15.0519 16.9876 16.3417 15.4748C17.6315 13.9619 18.3379 12.0377 18.3334 10.0497C18.3334 5.44137 14.5834 1.69971 10.0001 1.69971Z" fill="white"/>
</svg>