<svg xmlns="http://www.w3.org/2000/svg" width="190" height="190" viewBox="0 0 190 190" fill="none">
  <rect width="190" height="190" rx="95" fill="url(#paint0_linear_1234_11868)"/>
  <path d="M42 136.497V53.5034H111.05C132.352 53.2079 148.156 72.4598 147.999 95.0001C148.156 117.667 132.352 136.792 111.05 136.497H42ZM54.3642 126.816H107.306C107.637 126.821 107.966 126.817 108.294 126.809C110.132 126.753 111.8 126.671 113.591 126.443L83.5685 91.4997L94.2249 112.132H73.1192V77.8689H101.626C110.42 77.7468 116.902 85.695 116.88 95.0007C116.871 98.6996 116.45 101.192 114.692 104.028L85.9472 89.212L125.569 119.657C131.865 113.767 135.703 104.817 135.634 95.0007C135.755 77.7184 123.638 62.9584 107.306 63.1847H54.3642V126.816Z" fill="white"/>
  <defs>
    <linearGradient id="paint0_linear_1234_11868" x1="34.3155" y1="14.1299" x2="159.467" y2="189.745" gradientUnits="userSpaceOnUse">
      <stop/>
      <stop offset="1"/>
    </linearGradient>
  </defs>
</svg>