<svg xmlns="http://www.w3.org/2000/svg" width="83" height="86" viewBox="0 0 83 86" fill="none">
  <rect width="80" height="80" rx="40" fill="url(#paint0_linear_1314_3574)"/>
  <g filter="url(#filter0_d_1314_3574)">
    <path d="M16 59.9984V20.0016H49.222C59.4711 19.8592 67.0752 29.1372 66.9994 40.0001C67.0752 50.9238 59.4711 60.1406 49.222 59.9984H16ZM21.9488 55.3331H47.4206C47.5801 55.3353 47.7384 55.3334 47.8963 55.3298C48.7805 55.3025 49.5831 55.2632 50.4448 55.1535L36 38.3131L41.1271 48.2563H30.9724V31.744H44.6879C48.9192 31.6852 52.0377 35.5156 52.0271 40.0003C52.023 41.7829 51.8205 42.984 50.9747 44.351L37.1444 37.2106L56.2078 51.8827C59.2371 49.0442 61.0836 44.7313 61.0503 40.0003C61.1086 31.6715 55.2787 24.5582 47.4206 24.6673H21.9488V55.3331Z" fill="url(#paint1_linear_1314_3574)" shape-rendering="crispEdges"/>
  </g>
  <defs>
    <filter id="filter0_d_1314_3574" x="0" y="14" width="83" height="72" filterUnits="userSpaceOnUse" color-interpolation-filters="sRGB">
      <feFlood flood-opacity="0" result="BackgroundImageFix"/>
      <feColorMatrix in="SourceAlpha" type="matrix" values="0 0 0 0 0 0 0 0 0 0 0 0 0 0 0 0 0 0 127 0" result="hardAlpha"/>
      <feOffset dy="10"/>
      <feGaussianBlur stdDeviation="8"/>
      <feComposite in2="hardAlpha" operator="out"/>
      <feColorMatrix type="matrix" values="0 0 0 0 0.111429 0 0 0 0 0.137143 0 0 0 0 0.16 0 0 0 0.4 0"/>
      <feBlend mode="normal" in2="BackgroundImageFix" result="effect1_dropShadow_1314_3574"/>
      <feBlend mode="normal" in="SourceGraphic" in2="effect1_dropShadow_1314_3574" result="shape"/>
    </filter>
    <linearGradient id="paint0_linear_1314_3574" x1="40" y1="0" x2="40" y2="80" gradientUnits="userSpaceOnUse">
      <stop stop-color="#FF834B"/>
      <stop offset="1" stop-color="#FF4E13"/>
    </linearGradient>
    <linearGradient id="paint1_linear_1314_3574" x1="41.5" y1="60" x2="41.5" y2="20" gradientUnits="userSpaceOnUse">
      <stop stop-color="white"/>
      <stop offset="1" stop-color="white" stop-opacity="0.7"/>
    </linearGradient>
  </defs>
</svg>