<svg xmlns="http://www.w3.org/2000/svg" width="125" height="31" viewBox="0 0 125 31" fill="none">
  <path d="M64.9476 6.76228C62.4588 6.76228 60.5625 8.68228 60.5625 11.2023C60.5625 13.7223 62.5773 15.6423 64.9476 15.6423C67.4365 15.6423 69.3328 13.7223 69.3328 11.2023C69.4514 8.68228 67.4365 6.76228 64.9476 6.76228ZM64.9476 13.9623C63.6439 13.9623 62.4588 12.8823 62.4588 11.2023C62.4588 9.64228 63.6439 8.44228 64.9476 8.44228C66.2513 8.44228 67.4365 9.52228 67.4365 11.2023C67.4365 12.7623 66.3699 13.9623 64.9476 13.9623ZM55.3476 6.76228C52.8588 6.76228 50.9625 8.68228 50.9625 11.2023C50.9625 13.7223 52.9773 15.6423 55.3476 15.6423C57.718 15.6423 59.7328 13.7223 59.7328 11.2023C59.7328 8.68228 57.718 6.76228 55.3476 6.76228ZM55.3476 13.9623C54.0439 13.9623 52.8588 12.8823 52.8588 11.2023C52.8588 9.64228 54.0439 8.44228 55.3476 8.44228C56.6513 8.44228 57.8365 9.52228 57.8365 11.2023C57.8365 12.7623 56.6513 13.9623 55.3476 13.9623ZM43.8513 8.08228V10.0023H48.3551C48.2365 11.0823 47.881 11.8023 47.2884 12.4023C46.6958 13.0023 45.6291 13.8423 43.8513 13.8423C41.1254 13.8423 38.9921 11.5623 38.9921 8.80228C38.9921 6.04228 41.1254 3.76228 43.8513 3.76228C45.3921 3.76228 46.4588 4.36228 47.1699 5.08228L48.4736 3.76228C47.4069 2.68228 45.8662 1.84229 43.7328 1.84229C39.9402 1.84229 36.7402 4.96228 36.7402 8.80228C36.7402 12.6423 39.9402 15.7623 43.7328 15.7623C45.7476 15.7623 47.2884 15.0423 48.4736 13.8423C49.6588 12.6423 50.1328 10.8423 50.1328 9.40228C50.1328 8.92228 50.1328 8.56228 50.0143 8.20228H43.8513V8.08228ZM90.7847 9.64228C90.4291 8.68228 89.2439 6.76228 86.9921 6.76228C84.7402 6.76228 82.8439 8.56228 82.8439 11.2023C82.8439 13.7223 84.7402 15.6423 87.2291 15.6423C89.2439 15.6423 90.4291 14.4423 90.9032 13.7223L89.3625 12.7623C88.8884 13.4823 88.1773 13.9623 87.2291 13.9623C86.281 13.9623 85.5699 13.4823 85.0958 12.6423L91.0217 10.1223L90.7847 9.64228ZM84.7402 11.0823C84.7402 9.40228 86.0439 8.44228 86.9921 8.44228C87.7032 8.44228 88.4143 8.80228 88.6514 9.40228L84.7402 11.0823ZM79.9995 15.4023H81.8958V2.32228H79.9995V15.4023ZM76.7995 7.72228C76.3254 7.24228 75.4958 6.76228 74.4291 6.76228C72.1773 6.76228 70.1625 8.68228 70.1625 11.2023C70.1625 13.7223 72.1773 15.6423 74.4291 15.6423C75.4958 15.6423 76.3254 15.1623 76.7995 14.6823H76.918V15.2823C76.918 16.9623 75.9699 17.9223 74.5477 17.9223C73.3625 17.9223 72.6514 17.0823 72.2958 16.3623L70.6365 17.0823C71.1106 18.2823 72.4143 19.7223 74.5477 19.7223C76.7995 19.7223 78.6958 18.4023 78.6958 15.0423V7.00228H76.918V7.72228H76.7995ZM74.5477 13.9623C73.2439 13.9623 72.0588 12.8823 72.0588 11.3223C72.0588 9.76228 73.1254 8.56228 74.5477 8.56228C75.8514 8.56228 76.918 9.76228 76.918 11.3223C76.918 12.7623 75.9699 13.9623 74.5477 13.9623ZM99.9106 2.32228H95.2884V15.4023H97.1847V10.4823H99.9106C102.044 10.4823 104.177 8.92228 104.177 6.40228C104.177 3.88228 102.044 2.32228 99.9106 2.32228ZM99.9106 8.56228H97.1847V4.12228H99.9106C101.333 4.12228 102.162 5.32228 102.162 6.40228C102.162 7.36228 101.333 8.56228 99.9106 8.56228ZM111.881 6.76228C110.459 6.76228 109.037 7.36228 108.444 8.80228L110.103 9.52228C110.459 8.80228 111.17 8.56228 111.881 8.56228C112.829 8.56228 113.896 9.16228 113.896 10.2423V10.3623C113.54 10.1223 112.829 9.88228 111.881 9.88228C109.985 9.88228 108.207 10.9623 108.207 12.8823C108.207 14.6823 109.748 15.7623 111.407 15.7623C112.711 15.7623 113.422 15.1623 113.896 14.4423H114.014V15.4023H115.911V10.3623C115.792 8.08228 114.014 6.76228 111.881 6.76228ZM111.644 13.9623C111.051 13.9623 110.103 13.6023 110.103 12.8823C110.103 11.9223 111.17 11.4423 112.118 11.4423C112.948 11.4423 113.422 11.6823 113.896 11.9223C113.777 13.0023 112.711 13.9623 111.644 13.9623ZM122.548 7.00228L120.296 12.6423H120.177L117.925 7.00228H115.792L119.229 14.9223L117.214 19.3623H119.229L124.562 7.00228H122.548ZM105.125 15.4023H107.022V2.32228H105.125V15.4023Z" fill="white"/>
  <path d="M0.592593 0.400879C0.237037 0.760879 0 1.36088 0 2.08088V28.6009C0 29.3209 0.237037 29.9209 0.592593 30.2809L0.711112 30.4009L15.4074 15.5209V15.4009V15.2809L0.592593 0.400879Z" fill="url(#paint0_linear_1249_7271)"/>
  <path d="M20.2665 20.5594L15.4072 15.6394V15.3994V15.2794L20.2665 10.3594L20.385 10.4794L26.1924 13.8394C27.8517 14.7994 27.8517 16.3594 26.1924 17.3194L20.2665 20.5594Z" fill="url(#paint1_linear_1249_7271)"/>
  <path d="M20.3854 20.4409L15.4076 15.4009L0.592773 30.4009C1.18537 31.0009 2.015 31.0009 3.08166 30.5209L20.3854 20.4409Z" fill="url(#paint2_linear_1249_7271)"/>
  <path d="M20.3854 10.3618L3.08166 0.401794C2.015 -0.198206 1.18537 -0.0782051 0.592773 0.521795L15.4076 15.4018L20.3854 10.3618Z" fill="url(#paint3_linear_1249_7271)"/>
  <path opacity="0.2" d="M20.2659 20.3198L3.08069 30.1598C2.13254 30.7598 1.30291 30.6398 0.710316 30.1598L0.591797 30.2798L0.710316 30.3998C1.30291 30.8798 2.13254 30.9998 3.08069 30.3998L20.2659 20.3198Z" fill="white"/>
  <path opacity="0.12" d="M0.592238 29.5516C0.236682 29.1916 0.118164 28.5916 0.118164 27.8716V27.9916C0.118164 28.7116 0.355201 29.3116 0.710757 29.6716V29.5516H0.592238Z" fill="white"/>
  <path opacity="0.12" d="M26.1925 16.9609L20.2666 20.3209L20.3851 20.4409L26.1925 17.0809C27.0222 16.6009 27.3777 16.0009 27.3777 15.4009C27.3777 16.0009 26.9036 16.4809 26.1925 16.9609Z" fill="white"/>
  <path opacity="0.25" d="M3.08015 0.518879L26.1913 13.8389C26.9024 14.3189 27.3764 14.7989 27.3764 15.3989C27.3764 14.7989 27.0209 14.1989 26.1913 13.7189L3.08015 0.398879C1.42089 -0.561121 0.117188 0.278879 0.117188 2.19888V2.31888C0.117188 0.398879 1.42089 -0.441121 3.08015 0.518879Z" fill="white"/>
  <path d="M46.2014 28.0714C45.4903 28.7914 44.6607 29.1514 43.594 29.1514C42.5273 29.1514 41.6977 28.7914 40.9866 28.0714C40.2755 27.3514 39.9199 26.5114 39.9199 25.4314C39.9199 24.3514 40.2755 23.5114 40.9866 22.7914C41.6977 22.0714 42.5273 21.7114 43.594 21.7114C44.6607 21.7114 45.4903 22.0714 46.2014 22.7914C46.9125 23.5114 47.2681 24.3514 47.2681 25.4314C47.2681 26.5114 46.9125 27.3514 46.2014 28.0714ZM41.6977 27.4714C42.1718 27.9514 42.8829 28.3114 43.594 28.3114C44.3051 28.3114 45.0162 28.0714 45.4903 27.4714C45.9644 26.9914 46.3199 26.2714 46.3199 25.4314C46.3199 24.5914 46.0829 23.8714 45.4903 23.3914C45.0162 22.9114 44.3051 22.5514 43.594 22.5514C42.8829 22.5514 42.1718 22.7914 41.6977 23.3914C41.2236 23.8714 40.8681 24.5914 40.8681 25.4314C40.9866 26.2714 41.2236 26.9914 41.6977 27.4714Z" fill="white"/>
  <path d="M48.5723 29.0307V21.9507H50.9426C51.5352 21.9507 52.0093 22.1907 52.4834 22.5507C52.9574 22.9107 53.1945 23.5107 53.1945 24.1107C53.1945 24.5907 53.076 25.0707 52.7204 25.4307C52.3649 25.7907 52.0093 26.0307 51.5352 26.1507L53.55 29.0307H52.4834L50.5871 26.1507H49.6389V29.0307H48.5723ZM49.4019 25.3107H50.8241C51.1797 25.3107 51.5352 25.1907 51.7723 24.9507C52.0093 24.7107 52.1278 24.3507 52.1278 23.9907C52.1278 23.6307 52.0093 23.3907 51.7723 23.1507C51.5352 22.9107 51.1797 22.7907 50.8241 22.7907H49.2834V25.3107H49.4019Z" fill="white"/>
  <path d="M59.7127 29.5114L59.2386 28.7914C58.7645 29.0314 58.1719 29.1514 57.5794 29.1514C56.5127 29.1514 55.683 28.7914 54.9719 28.0714C54.2608 27.3514 53.9053 26.5114 53.9053 25.4314C53.9053 24.3514 54.2608 23.5114 54.9719 22.7914C55.683 22.0714 56.5127 21.7114 57.5794 21.7114C58.646 21.7114 59.4756 22.0714 60.1868 22.7914C60.8979 23.5114 61.2534 24.3514 61.2534 25.4314C61.2534 26.6314 60.8979 27.4714 60.0682 28.3114L60.5423 29.0314L59.7127 29.5114ZM57.5794 28.3114C57.9349 28.3114 58.409 28.1914 58.7645 28.0714L57.9349 26.8714L58.646 26.3914L59.4756 27.5914C60.0682 27.1114 60.3053 26.3914 60.3053 25.5514C60.3053 24.7114 60.0682 23.9914 59.4756 23.5114C59.0016 23.0314 58.2905 22.6714 57.5794 22.6714C56.8682 22.6714 56.1571 22.9114 55.683 23.5114C55.209 23.9914 54.8534 24.7114 54.8534 25.5514C54.8534 26.3914 55.0905 27.1114 55.683 27.5914C56.1571 28.0714 56.8682 28.3114 57.5794 28.3114Z" fill="white"/>
  <path d="M61.6084 29.0307L64.2158 21.9507H65.2825L67.8899 29.0307H66.9417L66.2306 27.1107H63.2677L62.5566 29.0307H61.6084ZM63.6232 26.2707H65.9936L64.8084 23.0307L63.6232 26.2707Z" fill="white"/>
  <path d="M68.8389 29.0307V21.9507H69.787V28.1907H72.8685V29.0307H68.8389Z" fill="white"/>
  <path d="M73.8164 29.0307V21.9507H74.7646V29.0307H73.8164Z" fill="white"/>
  <path d="M84.1272 28.0714C83.4161 28.7914 82.5864 29.1514 81.5198 29.1514C80.4531 29.1514 79.6235 28.7914 78.9124 28.0714C78.2013 27.3514 77.8457 26.5114 77.8457 25.4314C77.8457 24.3514 78.2013 23.5114 78.9124 22.7914C79.6235 22.0714 80.4531 21.7114 81.5198 21.7114C82.5864 21.7114 83.4161 22.0714 84.1272 22.7914C84.8383 23.5114 85.1938 24.3514 85.1938 25.4314C85.1938 26.5114 84.8383 27.3514 84.1272 28.0714ZM79.6235 27.4714C80.0976 27.9514 80.8087 28.3114 81.5198 28.3114C82.2309 28.3114 82.942 28.0714 83.4161 27.4714C83.8901 26.9914 84.2457 26.2714 84.2457 25.4314C84.2457 24.5914 84.0087 23.8714 83.4161 23.3914C82.942 22.9114 82.2309 22.5514 81.5198 22.5514C80.8087 22.5514 80.0976 22.7914 79.6235 23.3914C79.1494 23.8714 78.7938 24.5914 78.7938 25.4314C78.9124 26.2714 79.1494 26.9914 79.6235 27.4714Z" fill="white"/>
  <path d="M86.3799 29.0307V21.9507H87.328V28.1907H90.4095V29.0307H86.3799Z" fill="white"/>
  <path d="M91.3574 29.0307V21.9507H92.3056V29.0307H91.3574Z" fill="white"/>
  <path d="M93.9639 29.0307V21.9507H95.0305L98.4676 27.4707V26.1507V21.9507H99.4157V29.0307H98.4676L94.912 23.2707V24.5907V29.0307H93.9639Z" fill="white"/>
  <path d="M107.713 25.7935C107.713 26.7535 107.476 27.5935 106.883 28.1935C106.172 28.9135 105.342 29.2735 104.276 29.2735C103.209 29.2735 102.379 28.9135 101.668 28.1935C100.957 27.4735 100.602 26.6335 100.602 25.5535C100.602 24.4735 100.957 23.6335 101.668 22.9135C102.379 22.1935 103.209 21.8335 104.276 21.8335C104.75 21.8335 105.224 21.9535 105.698 22.0735C106.172 22.3135 106.527 22.5535 106.765 22.9135L106.172 23.5135C105.698 22.9135 105.105 22.6735 104.276 22.6735C103.565 22.6735 102.853 22.9135 102.379 23.5135C101.787 23.9935 101.55 24.7135 101.55 25.5535C101.55 26.3935 101.787 27.1135 102.379 27.5935C102.972 28.0735 103.565 28.4335 104.276 28.4335C105.105 28.4335 105.698 28.1935 106.29 27.5935C106.646 27.2335 106.883 26.7535 106.883 26.1535H104.276V25.3135H107.713C107.713 25.4335 107.713 25.5535 107.713 25.7935Z" fill="white"/>
  <defs>
    <linearGradient id="paint0_linear_1249_7271" x1="14.1034" y1="1.85252" x2="-6.03397" y2="21.7412" gradientUnits="userSpaceOnUse">
      <stop stop-color="#00A0FF"/>
      <stop offset="0.00657445" stop-color="#00A1FF"/>
      <stop offset="0.2601" stop-color="#00BEFF"/>
      <stop offset="0.5122" stop-color="#00D2FF"/>
      <stop offset="0.7604" stop-color="#00DFFF"/>
      <stop offset="1" stop-color="#00E3FF"/>
    </linearGradient>
    <linearGradient id="paint1_linear_1249_7271" x1="28.3665" y1="15.4011" x2="-0.31129" y2="15.4011" gradientUnits="userSpaceOnUse">
      <stop stop-color="#FFE000"/>
      <stop offset="0.4087" stop-color="#FFBD00"/>
      <stop offset="0.7754" stop-color="#FFA500"/>
      <stop offset="1" stop-color="#FF9C00"/>
    </linearGradient>
    <linearGradient id="paint2_linear_1249_7271" x1="17.6914" y1="18.1562" x2="-9.6164" y2="45.1269" gradientUnits="userSpaceOnUse">
      <stop stop-color="#FF3A44"/>
      <stop offset="1" stop-color="#C31162"/>
    </linearGradient>
    <linearGradient id="paint3_linear_1249_7271" x1="-3.0845" y1="-8.38677" x2="9.10968" y2="3.65675" gradientUnits="userSpaceOnUse">
      <stop stop-color="#32A071"/>
      <stop offset="0.0685" stop-color="#2DA771"/>
      <stop offset="0.4762" stop-color="#15CF74"/>
      <stop offset="0.8009" stop-color="#06E775"/>
      <stop offset="1" stop-color="#00F076"/>
    </linearGradient>
  </defs>
</svg>