<svg xmlns="http://www.w3.org/2000/svg" width="24" height="24" viewBox="0 0 24 24" fill="none">
  <path fill-rule="evenodd" clip-rule="evenodd" d="M8.4385 3.1875H6.3125C6.04728 3.1875 5.79293 3.29286 5.60539 3.48039C5.41786 3.66793 5.3125 3.92228 5.3125 4.1875C5.3125 4.45272 5.41786 4.70707 5.60539 4.89461C5.79293 5.08214 6.04728 5.1875 6.3125 5.1875H8.4385C8.26914 4.53159 8.26914 3.84341 8.4385 3.1875ZM8.7585 6.0235C6.0375 7.5015 5.3125 10.5425 5.3125 12.1875V17.1875C5.3125 17.9831 5.62857 18.7462 6.19118 19.3088C6.75379 19.8714 7.51685 20.1875 8.3125 20.1875H8.3405C8.32294 20.0401 8.31359 19.8919 8.3125 19.7435V14.1875C8.3125 13.1266 8.73393 12.1092 9.48407 11.3591C10.2342 10.6089 11.2516 10.1875 12.3125 10.1875C13.3734 10.1875 14.3908 10.6089 15.1409 11.3591C15.8911 12.1092 16.3125 13.1266 16.3125 14.1875V19.7435C16.3125 19.8942 16.3032 20.0422 16.2845 20.1875H16.3125C17.1081 20.1875 17.8712 19.8714 18.4338 19.3088C18.9964 18.7462 19.3125 17.9831 19.3125 17.1875V12.1875C19.3125 10.5425 18.5865 7.5015 15.8675 6.0235C15.5309 6.67614 15.0211 7.22351 14.3941 7.60565C13.767 7.98779 13.0468 8.18993 12.3125 8.18993C11.5782 8.18993 10.858 7.98779 10.2309 7.60565C9.60388 7.22351 9.09411 6.67614 8.7575 6.0235H8.7585ZM16.1855 5.1875H18.3125C18.5777 5.1875 18.8321 5.08214 19.0196 4.89461C19.2071 4.70707 19.3125 4.45272 19.3125 4.1875C19.3125 3.92228 19.2071 3.66793 19.0196 3.48039C18.8321 3.29286 18.5777 3.1875 18.3125 3.1875H16.1865C16.3559 3.84341 16.3549 4.53159 16.1855 5.1875ZM12.3125 12.1875C11.7821 12.1875 11.2734 12.3982 10.8983 12.7733C10.5232 13.1484 10.3125 13.6571 10.3125 14.1875V19.7435C10.3125 20.5405 10.9595 21.1875 11.7565 21.1875H12.8685C13.6655 21.1875 14.3125 20.5405 14.3125 19.7435V14.1875C14.3125 13.6571 14.1018 13.1484 13.7267 12.7733C13.3516 12.3982 12.8429 12.1875 12.3125 12.1875ZM10.3125 4.1875C10.3125 3.65707 10.5232 3.14836 10.8983 2.77329C11.2734 2.39821 11.7821 2.1875 12.3125 2.1875C12.8429 2.1875 13.3516 2.39821 13.7267 2.77329C14.1018 3.14836 14.3125 3.65707 14.3125 4.1875C14.3125 4.71793 14.1018 5.22664 13.7267 5.60171C13.3516 5.97679 12.8429 6.1875 12.3125 6.1875C11.7821 6.1875 11.2734 5.97679 10.8983 5.60171C10.5232 5.22664 10.3125 4.71793 10.3125 4.1875Z" fill="white"/>
</svg>