<svg xmlns="http://www.w3.org/2000/svg" width="20" height="20" viewBox="0 0 20 20" fill="none">
  <path d="M4.5 4C4.5 3.44687 4.94687 3 5.5 3H7.5C8.05312 3 8.5 3.44687 8.5 4H11.5C11.5 3.44687 11.9469 3 12.5 3H14.5C15.0531 3 15.5 3.44687 15.5 4H16C17.1031 4 18 4.89688 18 6V14C18 15.1031 17.1031 16 16 16H4C2.89687 16 2 15.1031 2 14V6C2 4.89688 2.89687 4 4 4H4.5ZM14.25 7.75C14.25 7.33437 13.9156 7 13.5 7C13.0844 7 12.75 7.33437 12.75 7.75V8.75H11.75C11.3344 8.75 11 9.08437 11 9.5C11 9.91563 11.3344 10.25 11.75 10.25H12.75V11.25C12.75 11.6656 13.0844 12 13.5 12C13.9156 12 14.25 11.6656 14.25 11.25V10.25H15.25C15.6656 10.25 16 9.91563 16 9.5C16 9.08437 15.6656 8.75 15.25 8.75H14.25V7.75ZM4 9.5C4 9.91563 4.33437 10.25 4.75 10.25H8.25C8.66562 10.25 9 9.91563 9 9.5C9 9.08437 8.66562 8.75 8.25 8.75H4.75C4.33437 8.75 4 9.08437 4 9.5Z" fill="#F76300"/>
</svg>