<svg xmlns="http://www.w3.org/2000/svg" width="20" height="20" viewBox="0 0 20 20" fill="none">
  <path d="M7.49998 12.4999H4.91665C4.58332 12.4999 4.33665 12.3507 4.17665 12.0524C4.01665 11.7541 4.03415 11.4657 4.22915 11.1874L10.4583 2.22908C10.5972 2.03463 10.7778 1.89935 11 1.82324C11.2222 1.74713 11.4514 1.75047 11.6875 1.83324C11.9236 1.91602 12.0972 2.06185 12.2083 2.27074C12.3194 2.47963 12.3611 2.70185 12.3333 2.93741L11.6667 8.33324H14.8958C15.2569 8.33324 15.5105 8.49296 15.6567 8.81241C15.8028 9.13185 15.7575 9.43046 15.5208 9.70824L8.66665 17.9166C8.51387 18.0971 8.32637 18.2152 8.10415 18.2707C7.88193 18.3263 7.66665 18.3055 7.45832 18.2082C7.24998 18.111 7.08693 17.9619 6.96915 17.7607C6.85137 17.5596 6.80609 17.3407 6.83332 17.1041L7.49998 12.4999Z" fill="#00D0F4"/>
</svg>