<svg xmlns="http://www.w3.org/2000/svg" width="20" height="20" viewBox="0 0 20 20" fill="none">
  <path d="M8.70841 12.9166C9.05564 13.2638 9.49314 13.4271 10.0209 13.4066C10.5487 13.386 10.9306 13.1949 11.1667 12.8333L14.6876 7.56242C14.8126 7.36797 14.7954 7.19075 14.6359 7.03075C14.4765 6.87075 14.2992 6.85353 14.1042 6.97909L8.83342 10.4999C8.4723 10.7499 8.27453 11.1285 8.24008 11.6358C8.20564 12.143 8.36175 12.5699 8.70841 12.9166ZM4.25008 16.6666C3.94453 16.6666 3.66341 16.6005 3.40675 16.4683C3.15008 16.336 2.94508 16.1383 2.79175 15.8749C2.43064 15.2221 2.15286 14.5452 1.95841 13.8441C1.76397 13.143 1.66675 12.4171 1.66675 11.6666C1.66675 10.5138 1.88564 9.43047 2.32341 8.41659C2.76119 7.4027 3.3548 6.52075 4.10425 5.77075C4.85369 5.02075 5.73564 4.42714 6.75008 3.98992C7.76453 3.5527 8.84786 3.33381 10.0001 3.33325C11.139 3.33325 12.2084 3.54853 13.2084 3.97909C14.2084 4.40964 15.0834 4.99659 15.8334 5.73992C16.5834 6.48325 17.1806 7.35131 17.6251 8.34408C18.0695 9.33686 18.2987 10.4027 18.3126 11.5416C18.3265 12.3055 18.2398 13.0521 18.0526 13.7816C17.8654 14.511 17.577 15.2088 17.1876 15.8749C17.0348 16.1388 16.8301 16.3369 16.5734 16.4691C16.3167 16.6013 16.0351 16.6671 15.7284 16.6666H4.25008Z" fill="#00C13D"/>
</svg>