<svg xmlns="http://www.w3.org/2000/svg" width="20" height="20" viewBox="0 0 20 20" fill="none">
  <path d="M10.8566 1.66699C11.7941 1.66949 12.2699 1.67449 12.6808 1.68616L12.8424 1.69199C13.0291 1.69866 13.2133 1.70699 13.4358 1.71699C14.3224 1.75866 14.9274 1.89866 15.4583 2.10449C16.0083 2.31616 16.4716 2.60283 16.9349 3.06533C17.3589 3.48177 17.6868 3.98572 17.8958 4.54199C18.1016 5.07283 18.2416 5.67782 18.2833 6.56533C18.2933 6.78699 18.3016 6.97116 18.3083 7.15866L18.3133 7.32033C18.3258 7.73033 18.3308 8.20616 18.3324 9.14366L18.3333 9.76533V10.857C18.3353 11.4648 18.3289 12.0727 18.3141 12.6803L18.3091 12.842C18.3024 13.0295 18.2941 13.2137 18.2841 13.4353C18.2424 14.3228 18.1008 14.927 17.8958 15.4587C17.6868 16.0149 17.3589 16.5189 16.9349 16.9353C16.5185 17.3592 16.0146 17.6871 15.4583 17.8962C14.9274 18.102 14.3224 18.242 13.4358 18.2837L12.8424 18.3087L12.6808 18.3137C12.2699 18.3253 11.7941 18.3312 10.8566 18.3328L10.2349 18.3337H9.14411C8.536 18.3358 7.92788 18.3294 7.31995 18.3145L7.15828 18.3095C6.96045 18.302 6.76267 18.2934 6.56494 18.2837C5.67828 18.242 5.07328 18.102 4.54161 17.8962C3.98564 17.687 3.48198 17.3591 3.06578 16.9353C2.64157 16.519 2.31337 16.015 2.10411 15.4587C1.89828 14.9278 1.75828 14.3228 1.71661 13.4353L1.69161 12.842L1.68745 12.6803C1.67208 12.0727 1.66514 11.4648 1.66661 10.857V9.14366C1.66431 8.53583 1.67042 7.92799 1.68495 7.32033L1.69078 7.15866C1.69745 6.97116 1.70578 6.78699 1.71578 6.56533C1.75745 5.67782 1.89744 5.07366 2.10328 4.54199C2.31302 3.98549 2.6418 3.48152 3.06661 3.06533C3.48257 2.64162 3.98593 2.31372 4.54161 2.10449C5.07328 1.89866 5.67744 1.75866 6.56494 1.71699C6.78661 1.70699 6.97161 1.69866 7.15828 1.69199L7.31995 1.68699C7.92761 1.67219 8.53544 1.6658 9.14328 1.66783L10.8566 1.66699ZM9.99994 5.83366C8.89488 5.83366 7.83507 6.27265 7.05367 7.05405C6.27226 7.83545 5.83328 8.89526 5.83328 10.0003C5.83328 11.1054 6.27226 12.1652 7.05367 12.9466C7.83507 13.728 8.89488 14.167 9.99994 14.167C11.105 14.167 12.1648 13.728 12.9462 12.9466C13.7276 12.1652 14.1666 11.1054 14.1666 10.0003C14.1666 8.89526 13.7276 7.83545 12.9462 7.05405C12.1648 6.27265 11.105 5.83366 9.99994 5.83366ZM9.99994 7.50033C10.3282 7.50027 10.6533 7.56488 10.9567 7.69047C11.26 7.81605 11.5356 8.00016 11.7678 8.23226C12 8.46437 12.1842 8.73994 12.3099 9.04323C12.4356 9.34653 12.5003 9.6716 12.5004 9.99991C12.5004 10.3282 12.4358 10.6533 12.3102 10.9566C12.1846 11.26 12.0005 11.5356 11.7684 11.7678C11.5363 12 11.2607 12.1842 10.9575 12.3099C10.6542 12.4356 10.3291 12.5003 10.0008 12.5003C9.33774 12.5003 8.70185 12.2369 8.23301 11.7681C7.76417 11.2993 7.50078 10.6634 7.50078 10.0003C7.50078 9.33728 7.76417 8.7014 8.23301 8.23256C8.70185 7.76372 9.33774 7.50033 10.0008 7.50033M14.3758 4.58366C14.0995 4.58366 13.8346 4.69341 13.6392 4.88876C13.4439 5.08411 13.3341 5.34906 13.3341 5.62533C13.3341 5.90159 13.4439 6.16654 13.6392 6.3619C13.8346 6.55725 14.0995 6.66699 14.3758 6.66699C14.652 6.66699 14.917 6.55725 15.1123 6.3619C15.3077 6.16654 15.4174 5.90159 15.4174 5.62533C15.4174 5.34906 15.3077 5.08411 15.1123 4.88876C14.917 4.69341 14.652 4.58366 14.3758 4.58366Z" fill="white"/>
</svg>