<svg xmlns="http://www.w3.org/2000/svg" width="32" height="40" viewBox="0 0 32 40" fill="none">
  <path d="M26.9505 19.1058C26.9505 12.7974 22.0478 7.68372 15.9997 7.68372C9.95196 7.68372 5.04932 12.7974 5.04932 19.1058C5.04932 22.142 6.18721 24.8992 8.04024 26.9451H8.03879C11.1705 30.7043 11.9134 31.7898 12.4582 34.885C12.6613 36.0392 13.0009 36.6352 14.0812 36.6352C15.1603 36.6352 15.9979 36.6352 15.9997 36.6352H16.0001C16.0022 36.6352 16.8398 36.6352 17.9186 36.6352C18.9989 36.6352 19.3381 36.0392 19.5416 34.885C20.0868 31.7901 20.8293 30.7043 23.961 26.9451H23.9596C25.8122 24.8992 26.9505 22.142 26.9505 19.1058Z" fill="url(#paint0_linear_1249_5114)"/>
  <path d="M17.0196 4.48303C17.0196 5.07083 16.5631 5.54745 15.9991 5.54745C15.436 5.54745 14.979 5.07083 14.979 4.48303V1.06442C14.979 0.476622 15.436 0 15.9991 0C16.5631 0 17.0196 0.476622 17.0196 1.06442V4.48303Z" fill="url(#paint1_linear_1249_5114)"/>
  <path d="M28.6509 12.7161C28.163 13.0098 27.5389 12.8359 27.257 12.3263C26.975 11.8177 27.1428 11.1668 27.6304 10.8731L30.469 9.16379C30.9569 8.87008 31.581 9.04436 31.8629 9.55328C32.1449 10.0618 31.9774 10.7131 31.4895 11.0072L28.6509 12.7161Z" fill="url(#paint2_linear_1249_5114)"/>
  <path d="M27.6304 27.3391C27.1425 27.0454 26.975 26.3945 27.2573 25.8848C27.5382 25.3763 28.163 25.202 28.6505 25.4961L31.4888 27.2054C31.9767 27.4995 32.1441 28.1504 31.8625 28.6593C31.5809 29.1682 30.9569 29.3425 30.4683 29.0488L27.6304 27.3391Z" fill="url(#paint3_linear_1249_5114)"/>
  <path d="M4.36886 10.873C4.85678 11.1667 5.02422 11.8179 4.74227 12.3269C4.46104 12.8358 3.83629 13.0097 3.34836 12.716L0.510472 11.007C0.0225466 10.713 -0.144894 10.0617 0.136698 9.55352C0.41829 9.04422 1.04269 8.86995 1.53025 9.16366L4.36886 10.873Z" fill="url(#paint4_linear_1249_5114)"/>
  <path d="M3.34916 25.496C3.83709 25.2019 4.46113 25.3765 4.74308 25.8858C5.02503 26.3948 4.85687 27.0453 4.36895 27.3394L1.53142 29.0479C1.04313 29.342 0.418733 29.1674 0.137861 28.6592C-0.144811 28.1503 0.022993 27.4994 0.510558 27.2053L3.34916 25.496Z" fill="url(#paint5_linear_1249_5114)"/>
  <path d="M18.8907 39.585C18.8338 39.8183 18.5879 40.0001 18.3401 40.0001H13.6611C13.413 40.0001 13.167 39.8183 13.1091 39.585L11.6493 33.6766C11.511 33.1211 11.7263 32.6449 12.1357 32.6449H19.8651C20.2745 32.6449 20.4881 33.1211 20.352 33.6766L18.8907 39.585Z" fill="url(#paint6_linear_1249_5114)"/>
  <path d="M14.8085 32.6446V22.3058C14.8085 21.5745 14.24 20.9818 13.5389 20.9818C12.8378 20.9818 12.2695 21.5745 12.2695 22.3058C12.2695 23.037 12.8378 23.6301 13.5389 23.6301H18.461C19.1621 23.6301 19.7303 23.037 19.7303 22.3058C19.7303 21.5745 19.1621 20.9818 18.461 20.9818C17.7599 20.9818 17.1913 21.5745 17.1913 22.3058V32.6446" stroke="white" stroke-width="2" stroke-miterlimit="10"/>
  <path d="M14.0464 10.9104C13.718 10.9104 13.4217 10.6749 13.3453 10.3263C13.2564 9.9222 13.4991 9.51957 13.8869 9.42679C14.0248 9.39374 14.1634 9.36407 14.3035 9.33741C14.6964 9.26567 15.0702 9.53384 15.1411 9.94173C15.212 10.35 14.9528 10.741 14.5617 10.8154C14.4429 10.8375 14.3251 10.8631 14.2077 10.8908C14.1534 10.9044 14.0993 10.9104 14.0464 10.9104ZM9.29175 14.4736C10.0746 13.2225 11.1642 12.211 12.4436 11.5481C12.7998 11.3637 12.9453 10.913 12.7681 10.5412C12.5913 10.1701 12.1595 10.0168 11.8027 10.2028C10.2939 10.9844 9.008 12.1776 8.08545 13.6529C7.86795 14.0003 7.96194 14.4657 8.29502 14.6926C8.41637 14.7756 8.55284 14.8146 8.68787 14.8146C8.92301 14.8146 9.15347 14.6944 9.29175 14.4736Z" fill="white"/>
  <defs>
    <linearGradient id="paint0_linear_1249_5114" x1="15.3236" y1="11.9331" x2="19.6829" y2="54.4435" gradientUnits="userSpaceOnUse">
      <stop stop-color="#FFD52E"/>
      <stop offset="1" stop-color="#FF9000"/>
    </linearGradient>
    <linearGradient id="paint1_linear_1249_5114" x1="15.8152" y1="0.819423" x2="16.6445" y2="8.90555" gradientUnits="userSpaceOnUse">
      <stop stop-color="#FFD52E"/>
      <stop offset="1" stop-color="#FF9000"/>
    </linearGradient>
    <linearGradient id="paint2_linear_1249_5114" x1="31.0905" y1="9.79639" x2="24.5742" y2="14.2717" gradientUnits="userSpaceOnUse">
      <stop stop-color="#FFD52E"/>
      <stop offset="1" stop-color="#FF9000"/>
    </linearGradient>
    <linearGradient id="paint3_linear_1249_5114" x1="31.2743" y1="28.0832" x2="24.0746" y2="24.9541" gradientUnits="userSpaceOnUse">
      <stop stop-color="#FFD52E"/>
      <stop offset="1" stop-color="#FF9000"/>
    </linearGradient>
    <linearGradient id="paint4_linear_1249_5114" x1="0.724916" y1="10.1295" x2="7.92452" y2="13.2585" gradientUnits="userSpaceOnUse">
      <stop stop-color="#FFD52E"/>
      <stop offset="1" stop-color="#FF9000"/>
    </linearGradient>
    <linearGradient id="paint5_linear_1249_5114" x1="0.909704" y1="28.4154" x2="7.42555" y2="23.9404" gradientUnits="userSpaceOnUse">
      <stop stop-color="#FFD52E"/>
      <stop offset="1" stop-color="#FF9000"/>
    </linearGradient>
    <linearGradient id="paint6_linear_1249_5114" x1="15.9998" y1="31.2988" x2="15.9998" y2="42.8" gradientUnits="userSpaceOnUse">
      <stop stop-color="#586578"/>
      <stop offset="1" stop-color="#3F4E63"/>
    </linearGradient>
  </defs>
</svg>