<svg xmlns="http://www.w3.org/2000/svg" width="40" height="40" viewBox="0 0 40 40" fill="none">
  <path d="M37.7446 34.9322H13.7857C12.54 34.9322 11.5303 33.9224 11.5303 32.6768V26.5156C11.5303 25.2699 12.54 24.2602 13.7857 24.2602L25.4553 22.5549L37.7446 24.2602C38.9902 24.2602 40 25.2699 40 26.5156V32.6768C40 33.9224 38.9902 34.9322 37.7446 34.9322Z" fill="url(#paint0_linear_1507_2905)"/>
  <path d="M39.9996 26.5155V29.5964H11.5303V26.5155C11.5303 25.2701 12.5399 24.2605 13.7853 24.2605H37.7439C38.99 24.2605 39.9996 25.2701 39.9996 26.5155Z" fill="url(#paint1_linear_1507_2905)"/>
  <path d="M15.5332 33.1734L13.7744 34.9322C13.3082 34.9311 12.8541 34.7841 12.4756 34.512L14.6737 32.3139C14.9109 32.0767 15.2954 32.0767 15.5332 32.3139V32.3146C15.5896 32.371 15.6344 32.4379 15.6649 32.5116C15.6954 32.5853 15.7111 32.6643 15.7111 32.744C15.7111 32.8238 15.6954 32.9027 15.6648 32.9764C15.6343 33.0501 15.5896 33.117 15.5332 33.1734Z" fill="url(#paint2_linear_1507_2905)"/>
  <path d="M20.1437 33.1734L18.385 34.9322H16.666L19.2843 32.3139C19.5221 32.0767 19.9066 32.0767 20.1438 32.3139V32.3146C20.2002 32.371 20.2449 32.4379 20.2755 32.5116C20.306 32.5853 20.3217 32.6643 20.3217 32.744C20.3217 32.8238 20.3059 32.9027 20.2754 32.9764C20.2449 33.0501 20.2001 33.117 20.1437 33.1734Z" fill="url(#paint3_linear_1507_2905)"/>
  <path d="M24.7535 33.1736L22.9947 34.9324H21.2764L23.8946 32.3141C23.951 32.2577 24.018 32.213 24.0917 32.1825C24.1653 32.1519 24.2443 32.1362 24.3241 32.1362C24.4038 32.1362 24.4828 32.1519 24.5565 32.1825C24.6301 32.213 24.6971 32.2577 24.7535 32.3141V32.3148C24.8673 32.4287 24.9313 32.5832 24.9313 32.7442C24.9313 32.9053 24.8673 33.0597 24.7535 33.1736Z" fill="url(#paint4_linear_1507_2905)"/>
  <path d="M29.3645 33.1734L27.6057 34.9322H25.8867L28.505 32.3139C28.619 32.2 28.7736 32.136 28.9348 32.136C29.0959 32.136 29.2505 32.2 29.3645 32.3139V32.3146C29.4784 32.4285 29.5423 32.583 29.5423 32.744C29.5423 32.9051 29.4783 33.0595 29.3645 33.1734Z" fill="url(#paint5_linear_1507_2905)"/>
  <path d="M33.9742 33.1736L32.2154 34.9324H30.4971L33.1154 32.3141C33.1717 32.2577 33.2387 32.213 33.3124 32.1825C33.386 32.1519 33.465 32.1362 33.5448 32.1362C33.6245 32.1362 33.7035 32.1519 33.7772 32.1825C33.8508 32.213 33.9178 32.2577 33.9742 32.3141V32.3148C34.0881 32.4287 34.152 32.5832 34.152 32.7442C34.152 32.9053 34.0881 33.0597 33.9742 33.1736Z" fill="url(#paint6_linear_1507_2905)"/>
  <path d="M38.5845 33.1736L36.8258 34.9324H35.1074L37.7257 32.3141C37.7821 32.2577 37.849 32.213 37.9227 32.1825C37.9964 32.1519 38.0754 32.1362 38.1551 32.1362C38.2349 32.1362 38.3138 32.1519 38.3875 32.1825C38.4612 32.213 38.5281 32.2577 38.5845 32.3141V32.3148C38.6411 32.3711 38.6859 32.438 38.7165 32.5117C38.7471 32.5854 38.7629 32.6644 38.7629 32.7442C38.7629 32.824 38.7471 32.903 38.7165 32.9767C38.6859 33.0504 38.6411 33.1173 38.5845 33.1736Z" fill="url(#paint7_linear_1507_2905)"/>
  <path d="M11.5303 29.5962V32.6768C11.5303 33.9224 12.54 34.9322 13.7857 34.9322H37.7445C38.9901 34.9322 39.9999 33.9224 39.9999 32.6768V29.5962H11.5303Z" fill="url(#paint8_linear_1507_2905)"/>
  <path d="M11.5303 28.9888H40V30.2038H11.5303V28.9888Z" fill="url(#paint9_linear_1507_2905)"/>
  <path d="M15.5332 26.019L13.7744 24.2603C13.3082 24.2614 12.8541 24.4083 12.4756 24.6804L14.6737 26.8785C14.9109 27.1157 15.2954 27.1157 15.5332 26.8785V26.8778C15.5896 26.8214 15.6344 26.7545 15.6649 26.6808C15.6954 26.6071 15.7111 26.5282 15.7111 26.4484C15.7111 26.3687 15.6954 26.2897 15.6648 26.216C15.6343 26.1423 15.5896 26.0754 15.5332 26.019Z" fill="url(#paint10_linear_1507_2905)"/>
  <path d="M20.1437 26.019L18.385 24.2603H16.666L19.2843 26.8785C19.5221 27.1157 19.9066 27.1157 20.1438 26.8785V26.8778C20.2002 26.8214 20.2449 26.7545 20.2755 26.6808C20.306 26.6071 20.3217 26.5282 20.3217 26.4484C20.3217 26.3687 20.3059 26.2897 20.2754 26.216C20.2449 26.1423 20.2001 26.0754 20.1437 26.019Z" fill="url(#paint11_linear_1507_2905)"/>
  <path d="M24.7535 26.019L22.9947 24.2603H21.2764L23.8946 26.8785C23.951 26.9349 24.018 26.9797 24.0917 27.0102C24.1653 27.0407 24.2443 27.0564 24.3241 27.0564C24.4038 27.0564 24.4828 27.0407 24.5565 27.0102C24.6301 26.9797 24.6971 26.9349 24.7535 26.8785V26.8778C24.8673 26.7639 24.9313 26.6095 24.9313 26.4484C24.9313 26.2874 24.8673 26.1329 24.7535 26.019Z" fill="url(#paint12_linear_1507_2905)"/>
  <path d="M29.3645 26.019L27.6057 24.2603H25.8867L28.505 26.8785C28.619 26.9925 28.7736 27.0564 28.9348 27.0564C29.0959 27.0564 29.2505 26.9925 29.3645 26.8785V26.8778C29.4784 26.7639 29.5423 26.6095 29.5423 26.4484C29.5423 26.2874 29.4783 26.1329 29.3645 26.019Z" fill="url(#paint13_linear_1507_2905)"/>
  <path d="M33.9742 26.019L32.2154 24.2603H30.4971L33.1154 26.8785C33.1717 26.9349 33.2387 26.9797 33.3124 27.0102C33.386 27.0407 33.465 27.0564 33.5448 27.0564C33.6245 27.0564 33.7035 27.0407 33.7772 27.0102C33.8508 26.9797 33.9178 26.9349 33.9742 26.8785V26.8778C34.0881 26.7639 34.152 26.6095 34.152 26.4484C34.152 26.2874 34.0881 26.1329 33.9742 26.019Z" fill="url(#paint14_linear_1507_2905)"/>
  <path d="M38.5845 26.019L36.8258 24.2603H35.1074L37.7257 26.8785C37.7821 26.9349 37.849 26.9797 37.9227 27.0102C37.9964 27.0407 38.0754 27.0564 38.1551 27.0564C38.2349 27.0564 38.3138 27.0407 38.3875 27.0102C38.4612 26.9797 38.5281 26.9349 38.5845 26.8785V26.8778C38.6411 26.8215 38.6859 26.7546 38.7165 26.6809C38.7471 26.6072 38.7629 26.5282 38.7629 26.4484C38.7629 26.3686 38.7471 26.2896 38.7165 26.2159C38.6859 26.1422 38.6411 26.0753 38.5845 26.019Z" fill="url(#paint15_linear_1507_2905)"/>
  <path d="M37.7447 24.2603H30.0273V34.9323H37.7447C38.9903 34.9323 40.0001 33.9225 40.0001 32.6769V26.5156C40.0001 25.27 38.9903 24.2603 37.7447 24.2603Z" fill="url(#paint16_linear_1507_2905)"/>
  <path d="M37.7446 34.9322H13.7857C12.54 34.9322 11.5303 33.9224 11.5303 32.6768V26.5156C11.5303 25.2699 12.54 24.2602 13.7857 24.2602L25.4553 22.5549L37.7446 24.2602C38.9902 24.2602 40 25.2699 40 26.5156V32.6768C40 33.9224 38.9902 34.9322 37.7446 34.9322Z" fill="url(#paint17_linear_1507_2905)"/>
  <path d="M13.7857 13.5881H37.7445C38.9901 13.5881 39.9999 14.5979 39.9999 15.8435V22.0048C39.9999 23.2504 38.9901 24.2602 37.7445 24.2602H13.7857C12.54 24.2602 11.5303 23.2504 11.5303 22.0048V15.8435C11.5303 14.598 12.54 13.5881 13.7857 13.5881Z" fill="url(#paint18_linear_1507_2905)"/>
  <path d="M39.9996 15.8433V18.9242H11.5303V15.8433C11.5303 14.5979 12.5399 13.5883 13.7853 13.5883H37.7439C38.99 13.5883 39.9996 14.5979 39.9996 15.8433Z" fill="url(#paint19_linear_1507_2905)"/>
  <path d="M15.5332 22.5015L13.7744 24.2603C13.3082 24.2592 12.8541 24.1123 12.4756 23.8401L14.6737 21.642C14.9109 21.4048 15.2954 21.4048 15.5332 21.642V21.6427C15.5896 21.6991 15.6344 21.7661 15.6649 21.8397C15.6954 21.9134 15.7111 21.9924 15.7111 22.0721C15.7111 22.1519 15.6954 22.2309 15.6648 22.3045C15.6343 22.3782 15.5896 22.4451 15.5332 22.5015Z" fill="url(#paint20_linear_1507_2905)"/>
  <path d="M20.1437 22.5015L18.385 24.2603H16.666L19.2843 21.642C19.5221 21.4048 19.9066 21.4048 20.1438 21.642V21.6427C20.2002 21.6991 20.2449 21.7661 20.2755 21.8397C20.306 21.9134 20.3217 21.9924 20.3217 22.0721C20.3217 22.1519 20.3059 22.2309 20.2754 22.3045C20.2449 22.3782 20.2001 22.4451 20.1437 22.5015Z" fill="url(#paint21_linear_1507_2905)"/>
  <path d="M24.7535 22.5015L22.9947 24.2603H21.2764L23.8946 21.642C23.951 21.5856 24.018 21.5409 24.0917 21.5103C24.1653 21.4798 24.2443 21.4641 24.3241 21.4641C24.4038 21.4641 24.4828 21.4798 24.5565 21.5103C24.6301 21.5409 24.6971 21.5856 24.7535 21.642V21.6427C24.8673 21.7566 24.9313 21.911 24.9313 22.0721C24.9313 22.2332 24.8673 22.3876 24.7535 22.5015Z" fill="url(#paint22_linear_1507_2905)"/>
  <path d="M29.3645 22.5013L27.6057 24.2601H25.8867L28.505 21.6418C28.619 21.5279 28.7736 21.4639 28.9348 21.4639C29.0959 21.4639 29.2505 21.5279 29.3645 21.6418V21.6425C29.4784 21.7564 29.5423 21.9109 29.5423 22.0719C29.5423 22.233 29.4783 22.3874 29.3645 22.5013Z" fill="url(#paint23_linear_1507_2905)"/>
  <path d="M33.9742 22.5015L32.2154 24.2603H30.4971L33.1154 21.642C33.1717 21.5856 33.2387 21.5409 33.3124 21.5103C33.386 21.4798 33.465 21.4641 33.5448 21.4641C33.6245 21.4641 33.7035 21.4798 33.7772 21.5103C33.8508 21.5409 33.9178 21.5856 33.9742 21.642V21.6427C34.0881 21.7566 34.152 21.911 34.152 22.0721C34.152 22.2332 34.0881 22.3876 33.9742 22.5015Z" fill="url(#paint24_linear_1507_2905)"/>
  <path d="M38.5845 22.5015L36.8258 24.2603H35.1074L37.7257 21.642C37.7821 21.5856 37.849 21.5409 37.9227 21.5103C37.9964 21.4798 38.0754 21.4641 38.1551 21.4641C38.2349 21.4641 38.3138 21.4798 38.3875 21.5103C38.4612 21.5409 38.5281 21.5856 38.5845 21.642V21.6427C38.6411 21.699 38.6859 21.7659 38.7165 21.8396C38.7471 21.9133 38.7629 21.9923 38.7629 22.0721C38.7629 22.1519 38.7471 22.2309 38.7165 22.3046C38.6859 22.3783 38.6411 22.4452 38.5845 22.5015Z" fill="url(#paint25_linear_1507_2905)"/>
  <path d="M11.5303 18.9241V22.0047C11.5303 23.2503 12.54 24.2601 13.7857 24.2601H37.7445C38.9901 24.2601 39.9999 23.2503 39.9999 22.0047V18.9241H11.5303Z" fill="url(#paint26_linear_1507_2905)"/>
  <path d="M11.5303 18.3167H40V19.5317H11.5303V18.3167Z" fill="url(#paint27_linear_1507_2905)"/>
  <path d="M15.5332 15.347L13.7744 13.5883C13.3082 13.5894 12.8541 13.7363 12.4756 14.0084L14.6737 16.2065C14.9109 16.4437 15.2954 16.4437 15.5332 16.2065V16.2058C15.5896 16.1494 15.6344 16.0825 15.6649 16.0088C15.6954 15.9351 15.7111 15.8562 15.7111 15.7764C15.7111 15.6967 15.6954 15.6177 15.6648 15.544C15.6343 15.4703 15.5896 15.4034 15.5332 15.347Z" fill="url(#paint28_linear_1507_2905)"/>
  <path d="M20.1437 15.347L18.385 13.5883H16.666L19.2843 16.2065C19.5221 16.4437 19.9066 16.4437 20.1438 16.2065V16.2058C20.2002 16.1494 20.2449 16.0825 20.2755 16.0088C20.306 15.9351 20.3217 15.8562 20.3217 15.7764C20.3217 15.6967 20.3059 15.6177 20.2754 15.544C20.2449 15.4703 20.2001 15.4034 20.1437 15.347Z" fill="url(#paint29_linear_1507_2905)"/>
  <path d="M24.7535 15.347L22.9947 13.5883H21.2764L23.8946 16.2065C23.951 16.2629 24.018 16.3077 24.0917 16.3382C24.1653 16.3687 24.2443 16.3844 24.3241 16.3844C24.4038 16.3844 24.4828 16.3687 24.5565 16.3382C24.6301 16.3077 24.6971 16.2629 24.7535 16.2065V16.2058C24.8673 16.0919 24.9313 15.9375 24.9313 15.7764C24.9313 15.6154 24.8673 15.4609 24.7535 15.347Z" fill="url(#paint30_linear_1507_2905)"/>
  <path d="M29.3645 15.347L27.6057 13.5883H25.8867L28.505 16.2065C28.619 16.3205 28.7736 16.3844 28.9348 16.3844C29.0959 16.3844 29.2505 16.3205 29.3645 16.2065V16.2058C29.4784 16.0919 29.5423 15.9375 29.5423 15.7764C29.5423 15.6154 29.4783 15.4609 29.3645 15.347Z" fill="url(#paint31_linear_1507_2905)"/>
  <path d="M33.9742 15.347L32.2154 13.5883H30.4971L33.1154 16.2065C33.1717 16.2629 33.2387 16.3077 33.3124 16.3382C33.386 16.3687 33.465 16.3844 33.5448 16.3844C33.6245 16.3844 33.7035 16.3687 33.7772 16.3382C33.8508 16.3077 33.9178 16.2629 33.9742 16.2065V16.2058C34.0881 16.0919 34.152 15.9375 34.152 15.7764C34.152 15.6154 34.0881 15.4609 33.9742 15.347Z" fill="url(#paint32_linear_1507_2905)"/>
  <path d="M38.5845 15.347L36.8258 13.5883H35.1074L37.7257 16.2065C37.7821 16.2629 37.849 16.3077 37.9227 16.3382C37.9964 16.3687 38.0754 16.3844 38.1551 16.3844C38.2349 16.3844 38.3138 16.3687 38.3875 16.3382C38.4612 16.3077 38.5281 16.2629 38.5845 16.2065V16.2058C38.6411 16.1495 38.6859 16.0826 38.7165 16.0089C38.7471 15.9352 38.7629 15.8562 38.7629 15.7764C38.7629 15.6966 38.7471 15.6176 38.7165 15.5439C38.6859 15.4702 38.6411 15.4033 38.5845 15.347Z" fill="url(#paint33_linear_1507_2905)"/>
  <path d="M37.7447 13.5881H30.0273V24.2602H37.7447C38.9903 24.2602 40.0001 23.2504 40.0001 22.0048V15.8435C40.0001 14.598 38.9903 13.5881 37.7447 13.5881Z" fill="url(#paint34_linear_1507_2905)"/>
  <path d="M38.8193 23.9883C38.4893 24.1673 38.1198 24.2607 37.7443 24.2601H13.7857C12.5396 24.2601 11.5303 23.2508 11.5303 22.0047V15.8437C11.5303 14.5976 12.5396 13.5883 13.7857 13.5883H28.4193L38.8193 23.9883Z" fill="url(#paint35_linear_1507_2905)"/>
  <path d="M14.9323 34.9323C23.1791 34.9323 29.8645 28.2469 29.8645 20C29.8645 11.7532 23.1791 5.06775 14.9323 5.06775C6.6854 5.06775 0 11.7532 0 20C0 28.2469 6.6854 34.9323 14.9323 34.9323Z" fill="url(#paint36_linear_1507_2905)"/>
  <path d="M23.601 7.84033L22.4688 9.67205C22.2783 9.98032 22.1974 10.3439 22.2393 10.7039C22.2812 11.0639 22.4434 11.3991 22.6997 11.6554L23.2773 12.233C23.5335 12.4893 23.8688 12.6515 24.2288 12.6934C24.5888 12.7353 24.9524 12.6544 25.2606 12.4638L27.0923 11.3317C26.1292 9.98322 24.9495 8.8035 23.601 7.84033Z" fill="url(#paint37_linear_1507_2905)"/>
  <path d="M26.3252 19.5917V20.4085C26.3252 21.1546 26.8382 21.8028 27.5644 21.9742L29.6605 22.4689C29.7942 21.6657 29.8648 20.8413 29.8648 20.0001C29.8648 19.1589 29.7941 18.3345 29.6605 17.5312L27.5644 18.0259C27.2117 18.1092 26.8974 18.3091 26.6725 18.5933C26.4476 18.8775 26.3252 19.2293 26.3252 19.5917Z" fill="url(#paint38_linear_1507_2905)"/>
  <path d="M27.0924 28.6684L25.2607 27.5362C24.9524 27.3457 24.5888 27.2648 24.2288 27.3067C23.8688 27.3486 23.5335 27.5109 23.2773 27.7672L22.6997 28.3447C22.4434 28.6009 22.2812 28.9362 22.2393 29.2962C22.1974 29.6562 22.2783 30.0197 22.4689 30.328L23.6011 32.1597C24.9495 31.1966 26.1292 30.0168 27.0924 28.6684Z" fill="url(#paint39_linear_1507_2905)"/>
  <path d="M14.9326 34.9322C15.7737 34.9322 16.5982 34.8615 17.4014 34.7279L16.9068 32.6318C16.8235 32.2791 16.6236 31.9648 16.3394 31.7399C16.0553 31.515 15.7035 31.3926 15.3411 31.3926H14.5243C14.1618 31.3926 13.8101 31.515 13.5259 31.7399C13.2417 31.9648 13.0418 32.2791 12.9586 32.6318L12.4639 34.7279C13.2798 34.8638 14.1055 34.9322 14.9326 34.9322Z" fill="url(#paint40_linear_1507_2905)"/>
  <path d="M6.58754 27.7671C6.33128 27.5108 5.996 27.3486 5.63602 27.3067C5.27605 27.2648 4.91246 27.3456 4.60418 27.5362L2.77246 28.6684C3.73563 30.0168 4.91535 31.1965 6.26379 32.1597L7.39598 30.328C7.58652 30.0197 7.66739 29.6561 7.62549 29.2961C7.58359 28.9362 7.42137 28.6009 7.16512 28.3446L6.58754 27.7671Z" fill="url(#paint41_linear_1507_2905)"/>
  <path d="M0.204297 22.4688L2.30039 21.9741C2.65311 21.8909 2.96739 21.691 3.19231 21.4068C3.41723 21.1226 3.5396 20.7708 3.53961 20.4084V19.5916C3.53961 18.8455 3.02656 18.1973 2.30039 18.0259L0.204297 17.5312C0.0707031 18.3344 0 19.1589 0 20C0 20.8411 0.0707031 21.6656 0.204297 22.4688Z" fill="url(#paint42_linear_1507_2905)"/>
  <path d="M2.77246 11.3317L4.60418 12.4638C4.91245 12.6544 5.27603 12.7353 5.63601 12.6934C5.99599 12.6515 6.33127 12.4892 6.58754 12.233L7.16512 11.6554C7.4214 11.3992 7.58363 11.0639 7.62553 10.7039C7.66744 10.3439 7.58655 9.98032 7.39598 9.67205L6.26379 7.84033C4.91538 8.80354 3.73567 9.98325 2.77246 11.3317Z" fill="url(#paint43_linear_1507_2905)"/>
  <path d="M14.9327 5.06775C14.0916 5.06775 13.2671 5.13845 12.4639 5.27205L12.9586 7.36814C13.0418 7.72086 13.2417 8.03514 13.5259 8.26006C13.8101 8.48498 14.1618 8.60735 14.5243 8.60736H15.3411C16.0871 8.60736 16.7354 8.09431 16.9068 7.36814L17.4014 5.27205C16.5856 5.13611 15.7598 5.06778 14.9327 5.06775Z" fill="url(#paint44_linear_1507_2905)"/>
  <path d="M23.601 7.84033L22.4688 9.67205C22.2783 9.98032 22.1974 10.3439 22.2393 10.7039C22.2812 11.0639 22.4434 11.3991 22.6997 11.6554L23.2773 12.233C23.5335 12.4893 23.8688 12.6515 24.2288 12.6934C24.5888 12.7353 24.9524 12.6544 25.2606 12.4638L27.0923 11.3317C26.1292 9.98322 24.9495 8.8035 23.601 7.84033Z" fill="url(#paint45_linear_1507_2905)"/>
  <path d="M26.3252 19.5917V20.4085C26.3252 21.1546 26.8382 21.8028 27.5644 21.9742L29.6605 22.4689C29.7942 21.6657 29.8648 20.8413 29.8648 20.0001C29.8648 19.1589 29.7941 18.3345 29.6605 17.5312L27.5644 18.0259C27.2117 18.1092 26.8974 18.3091 26.6725 18.5933C26.4476 18.8775 26.3252 19.2293 26.3252 19.5917Z" fill="url(#paint46_linear_1507_2905)"/>
  <path d="M27.0924 28.6684L25.2607 27.5362C24.9524 27.3457 24.5888 27.2648 24.2288 27.3067C23.8688 27.3486 23.5335 27.5109 23.2773 27.7672L22.6997 28.3447C22.4434 28.6009 22.2812 28.9362 22.2393 29.2962C22.1974 29.6562 22.2783 30.0197 22.4689 30.328L23.6011 32.1597C24.9495 31.1966 26.1292 30.0168 27.0924 28.6684Z" fill="url(#paint47_linear_1507_2905)"/>
  <path d="M14.9326 34.9322C15.7737 34.9322 16.5982 34.8615 17.4014 34.7279L16.9068 32.6318C16.8235 32.2791 16.6236 31.9648 16.3394 31.7399C16.0553 31.515 15.7035 31.3926 15.3411 31.3926H14.5243C14.1618 31.3926 13.8101 31.515 13.5259 31.7399C13.2417 31.9648 13.0418 32.2791 12.9586 32.6318L12.4639 34.7279C13.2798 34.8638 14.1055 34.9322 14.9326 34.9322Z" fill="url(#paint48_linear_1507_2905)"/>
  <path d="M6.58754 27.7671C6.33128 27.5108 5.996 27.3486 5.63602 27.3067C5.27605 27.2648 4.91246 27.3456 4.60418 27.5362L2.77246 28.6684C3.73563 30.0168 4.91535 31.1965 6.26379 32.1597L7.39598 30.328C7.58652 30.0197 7.66739 29.6561 7.62549 29.2961C7.58359 28.9362 7.42137 28.6009 7.16512 28.3446L6.58754 27.7671Z" fill="url(#paint49_linear_1507_2905)"/>
  <path d="M14.9319 30.9544C20.9818 30.9544 25.8863 26.05 25.8863 20C25.8863 13.9501 20.9818 9.04565 14.9319 9.04565C8.88198 9.04565 3.97754 13.9501 3.97754 20C3.97754 26.05 8.88198 30.9544 14.9319 30.9544Z" fill="url(#paint50_linear_1507_2905)"/>
  <path d="M0 20.0001C0 28.247 6.68539 34.9324 14.9323 34.9324C23.1791 34.9324 29.8645 28.247 29.8645 20.0001C29.8645 19.935 29.8629 19.8703 29.862 19.8054H0.0025C0.00164063 19.8703 0 19.935 0 20.0001Z" fill="url(#paint51_linear_1507_2905)"/>
  <path d="M4.37324 30.5588C10.2046 36.3902 19.6593 36.3902 25.4907 30.5588C31.3221 24.7274 31.3221 15.2728 25.4907 9.44136C25.4446 9.39534 25.3977 9.35073 25.3512 9.30542L4.2373 30.4193C4.28254 30.4658 4.32715 30.5127 4.37324 30.5588Z" fill="url(#paint52_linear_1507_2905)"/>
  <path d="M14.932 34.9323C23.1789 34.9323 29.8643 28.2469 29.8643 20C29.8643 11.7531 23.1789 5.06775 14.932 5.06775C14.8669 5.06775 14.8021 5.06939 14.7373 5.07025V34.9299C14.8022 34.9306 14.8669 34.9323 14.932 34.9323Z" fill="url(#paint53_linear_1507_2905)"/>
  <path d="M4.37324 30.5588C10.2046 36.3902 19.6593 36.3902 25.4907 30.5588C31.3221 24.7274 31.3221 15.2728 25.4907 9.44136C25.4446 9.39534 25.3977 9.35073 25.3512 9.30542L4.2373 30.4193C4.28254 30.4658 4.32715 30.5127 4.37324 30.5588Z" fill="url(#paint54_linear_1507_2905)"/>
  <path d="M14.9318 29.0686C19.9402 29.0686 24.0003 25.0084 24.0003 20C24.0003 14.9916 19.9402 10.9315 14.9318 10.9315C9.92339 10.9315 5.86328 14.9916 5.86328 20C5.86328 25.0084 9.92339 29.0686 14.9318 29.0686Z" fill="white"/>
  <path d="M5.86328 19.9999C5.86328 25.0083 9.92336 29.0684 14.9318 29.0684C19.9402 29.0684 24.0003 25.0083 24.0003 19.9999C24.0003 19.7592 23.9907 19.5207 23.9723 19.2847H5.89133C5.87269 19.5226 5.86333 19.7612 5.86328 19.9999Z" fill="url(#paint55_linear_1507_2905)"/>
  <path d="M12.6797 22.2525L18.6849 28.2578C20.6771 27.3511 22.2834 25.7447 23.1902 23.7525L17.1849 17.7473L12.6797 22.2525Z" fill="url(#paint56_linear_1507_2905)"/>
  <path d="M14.9319 23.7454C17.0004 23.7454 18.6773 22.0686 18.6773 20C18.6773 17.9315 17.0004 16.2546 14.9319 16.2546C12.8634 16.2546 11.1865 17.9315 11.1865 20C11.1865 22.0686 12.8634 23.7454 14.9319 23.7454Z" fill="white" fill-opacity="0.5"/>
  <path d="M14.9318 23.1856C16.6912 23.1856 18.1175 21.7593 18.1175 19.9999C18.1175 18.2405 16.6912 16.8142 14.9318 16.8142C13.1724 16.8142 11.7461 18.2405 11.7461 19.9999C11.7461 21.7593 13.1724 23.1856 14.9318 23.1856Z" fill="white" fill-opacity="0.5"/>
  <path d="M11.7471 20C11.7471 21.7594 13.1733 23.1857 14.9328 23.1857C16.6921 23.1857 18.1185 21.7595 18.1185 20C18.1185 19.9155 18.1151 19.8317 18.1086 19.7488H11.7569C11.7504 19.8324 11.7471 19.9162 11.7471 20Z" fill="url(#paint57_linear_1507_2905)"/>
  <path d="M12.6795 22.2526C13.9236 23.4967 15.9407 23.4967 17.1847 22.2526C18.4288 21.0085 18.4288 18.9914 17.1847 17.7474C17.1254 17.6881 17.0638 17.6311 17.0001 17.5767L12.5088 22.068C12.5632 22.1318 12.6202 22.1933 12.6795 22.2526Z" fill="url(#paint58_linear_1507_2905)"/>
  <path d="M18.9135 18.2768C19.2307 19.0092 20.0184 19.4175 20.7978 19.246L22.1271 18.9533C22.6455 18.8392 22.9603 18.3127 22.8182 17.8013C22.4428 16.4505 21.7302 15.2407 20.7764 14.2688C20.4056 13.8909 19.7927 13.9031 19.4356 14.294L18.5182 15.2983C17.9757 15.8923 17.9478 16.781 18.4252 17.4285C18.6195 17.6919 18.7833 17.9765 18.9135 18.2768Z" fill="url(#paint59_linear_1507_2905)"/>
  <path d="M22.127 21.0469L20.7978 20.7543C20.0184 20.5827 19.2307 20.9911 18.9134 21.7234C18.7833 22.0237 18.6195 22.3083 18.4252 22.5717C17.9478 23.2192 17.9757 24.108 18.5182 24.7019L19.4355 25.7062C19.7927 26.0972 20.4055 26.1093 20.7764 25.7315C21.7302 24.7595 22.4429 23.5497 22.8182 22.199C22.9604 21.6875 22.6455 21.1611 22.127 21.0469Z" fill="url(#paint60_linear_1507_2905)"/>
  <path d="M17.2122 25.4572C16.9696 24.6919 16.216 24.2221 15.418 24.3111C15.0955 24.3471 14.77 24.3471 14.4475 24.3111C13.6495 24.2222 12.8958 24.6919 12.6532 25.4573L12.2418 26.7551C12.0818 27.2598 12.3775 27.797 12.8902 27.9288C13.5573 28.1 14.2434 28.1864 14.9322 28.1859C15.6376 28.1859 16.3222 28.0967 16.975 27.9288C17.4878 27.7969 17.7835 27.2597 17.6235 26.7551L17.2122 25.4572Z" fill="url(#paint61_linear_1507_2905)"/>
  <path d="M10.9516 21.7232C10.6343 20.9908 9.84672 20.5825 9.06727 20.754L7.73711 21.0468C7.21867 21.1608 6.90367 21.6875 7.04594 22.1989C7.42149 23.5497 8.13469 24.7594 9.08867 25.7314C9.45953 26.1093 10.0723 26.0971 10.4295 25.7061L11.3468 24.7018C11.8893 24.1078 11.9173 23.219 11.4398 22.5715C11.2455 22.3081 11.0817 22.0235 10.9516 21.7232Z" fill="url(#paint62_linear_1507_2905)"/>
  <path d="M10.4294 14.2938C10.0724 13.9028 9.45951 13.8907 9.08865 14.2685C8.13458 15.2404 7.42146 16.4502 7.04591 17.801C6.90372 18.3125 7.21865 18.839 7.73708 18.9532L9.06724 19.2459C9.84669 19.4175 10.6343 19.009 10.9515 18.2768C11.0817 17.9764 11.2455 17.6918 11.4398 17.4284C11.9172 16.7809 11.8893 15.8921 11.3468 15.2982L10.4294 14.2938Z" fill="url(#paint63_linear_1507_2905)"/>
  <path d="M16.975 12.0713C16.3076 11.9001 15.6212 11.8137 14.9322 11.8142C14.2273 11.8142 13.5431 11.9034 12.8902 12.0713C12.3775 12.2032 12.0818 12.7404 12.2418 13.245L12.6532 14.5428C12.8958 15.3082 13.6494 15.7779 14.4475 15.689C14.77 15.653 15.0955 15.653 15.418 15.6891C16.216 15.778 16.9695 15.3082 17.2122 14.5429L17.6236 13.2451C17.7834 12.7404 17.4878 12.2032 16.975 12.0713Z" fill="url(#paint64_linear_1507_2905)"/>
  <path d="M18.9135 18.2768C19.2307 19.0092 20.0184 19.4175 20.7978 19.246L22.1271 18.9533C22.6455 18.8392 22.9603 18.3127 22.8182 17.8013C22.4428 16.4505 21.7302 15.2407 20.7764 14.2688C20.4056 13.8909 19.7927 13.9031 19.4356 14.294L18.5182 15.2983C17.9757 15.8923 17.9478 16.781 18.4252 17.4285C18.6195 17.6919 18.7833 17.9765 18.9135 18.2768Z" fill="url(#paint65_linear_1507_2905)"/>
  <path d="M22.127 21.0469L20.7978 20.7543C20.0184 20.5827 19.2307 20.9911 18.9134 21.7234C18.7833 22.0237 18.6195 22.3083 18.4252 22.5717C17.9478 23.2192 17.9757 24.108 18.5182 24.7019L19.4355 25.7062C19.7927 26.0972 20.4055 26.1093 20.7764 25.7315C21.7302 24.7595 22.4429 23.5497 22.8182 22.199C22.9604 21.6875 22.6455 21.1611 22.127 21.0469Z" fill="url(#paint66_linear_1507_2905)"/>
  <path d="M17.2122 25.4572C16.9696 24.6919 16.216 24.2221 15.418 24.3111C15.0955 24.3471 14.77 24.3471 14.4475 24.3111C13.6495 24.2222 12.8958 24.6919 12.6532 25.4573L12.2418 26.7551C12.0818 27.2598 12.3775 27.797 12.8902 27.9288C13.5573 28.1 14.2434 28.1864 14.9322 28.1859C15.6376 28.1859 16.3222 28.0967 16.975 27.9288C17.4878 27.7969 17.7835 27.2597 17.6235 26.7551L17.2122 25.4572Z" fill="url(#paint67_linear_1507_2905)"/>
  <path d="M10.9516 21.7232C10.6343 20.9908 9.84672 20.5825 9.06727 20.754L7.73711 21.0468C7.21867 21.1608 6.90367 21.6875 7.04594 22.1989C7.42149 23.5497 8.13469 24.7594 9.08867 25.7314C9.45953 26.1093 10.0723 26.0971 10.4295 25.7061L11.3468 24.7018C11.8893 24.1078 11.9173 23.219 11.4398 22.5715C11.2455 22.3081 11.0817 22.0235 10.9516 21.7232Z" fill="url(#paint68_linear_1507_2905)"/>
  <path d="M10.4294 14.2938C10.0724 13.9028 9.45951 13.8907 9.08865 14.2685C8.13458 15.2404 7.42146 16.4502 7.04591 17.801C6.90372 18.3125 7.21865 18.839 7.73708 18.9532L9.06724 19.2459C9.84669 19.4175 10.6343 19.009 10.9515 18.2768C11.0817 17.9764 11.2455 17.6918 11.4398 17.4284C11.9172 16.7809 11.8893 15.8921 11.3468 15.2982L10.4294 14.2938Z" fill="url(#paint69_linear_1507_2905)"/>
  <path d="M16.975 12.0713C16.3076 11.9001 15.6212 11.8137 14.9322 11.8142C14.2273 11.8142 13.5431 11.9034 12.8902 12.0713C12.3775 12.2032 12.0818 12.7404 12.2418 13.245L12.6532 14.5428C12.8958 15.3082 13.6494 15.7779 14.4475 15.689C14.77 15.653 15.0955 15.653 15.418 15.6891C16.216 15.778 16.9695 15.3082 17.2122 14.5429L17.6236 13.2451C17.7834 12.7404 17.4878 12.2032 16.975 12.0713Z" fill="url(#paint70_linear_1507_2905)"/>
  <path d="M18.9135 18.2768C19.2307 19.0092 20.0184 19.4175 20.7978 19.246L22.1271 18.9533C22.6455 18.8392 22.9603 18.3127 22.8182 17.8013C22.4428 16.4505 21.7302 15.2407 20.7764 14.2688C20.4056 13.8909 19.7927 13.9031 19.4356 14.294L18.5182 15.2983C17.9757 15.8923 17.9478 16.781 18.4252 17.4285C18.6195 17.6919 18.7833 17.9765 18.9135 18.2768Z" fill="url(#paint71_linear_1507_2905)"/>
  <path d="M22.127 21.0469L20.7978 20.7543C20.0184 20.5827 19.2307 20.9911 18.9134 21.7234C18.7833 22.0237 18.6195 22.3083 18.4252 22.5717C17.9478 23.2192 17.9757 24.108 18.5182 24.7019L19.4355 25.7062C19.7927 26.0972 20.4055 26.1093 20.7764 25.7315C21.7302 24.7595 22.4429 23.5497 22.8182 22.199C22.9604 21.6875 22.6455 21.1611 22.127 21.0469Z" fill="url(#paint72_linear_1507_2905)"/>
  <path d="M17.2122 25.4572C16.9696 24.6919 16.216 24.2221 15.418 24.3111C15.0955 24.3471 14.77 24.3471 14.4475 24.3111C13.6495 24.2222 12.8958 24.6919 12.6532 25.4573L12.2418 26.7551C12.0818 27.2598 12.3775 27.797 12.8902 27.9288C13.5573 28.1 14.2434 28.1864 14.9322 28.1859C15.6376 28.1859 16.3222 28.0967 16.975 27.9288C17.4878 27.7969 17.7835 27.2597 17.6235 26.7551L17.2122 25.4572Z" fill="url(#paint73_linear_1507_2905)"/>
  <path d="M10.9516 21.7232C10.6343 20.9908 9.84672 20.5825 9.06727 20.754L7.73711 21.0468C7.21867 21.1608 6.90367 21.6875 7.04594 22.1989C7.42149 23.5497 8.13469 24.7594 9.08867 25.7314C9.45953 26.1093 10.0723 26.0971 10.4295 25.7061L11.3468 24.7018C11.8893 24.1078 11.9173 23.219 11.4398 22.5715C11.2455 22.3081 11.0817 22.0235 10.9516 21.7232Z" fill="url(#paint74_linear_1507_2905)"/>
  <path d="M10.4294 14.2938C10.0724 13.9028 9.45951 13.8907 9.08865 14.2685C8.13458 15.2404 7.42146 16.4502 7.04591 17.801C6.90372 18.3125 7.21865 18.839 7.73708 18.9532L9.06724 19.2459C9.84669 19.4175 10.6343 19.009 10.9515 18.2768C11.0817 17.9764 11.2455 17.6918 11.4398 17.4284C11.9172 16.7809 11.8893 15.8921 11.3468 15.2982L10.4294 14.2938Z" fill="url(#paint75_linear_1507_2905)"/>
  <path d="M16.975 12.0713C16.3076 11.9001 15.6212 11.8137 14.9322 11.8142C14.2273 11.8142 13.5431 11.9034 12.8902 12.0713C12.3775 12.2032 12.0818 12.7404 12.2418 13.245L12.6532 14.5428C12.8958 15.3082 13.6494 15.7779 14.4475 15.689C14.77 15.653 15.0955 15.653 15.418 15.6891C16.216 15.778 16.9695 15.3082 17.2122 14.5429L17.6236 13.2451C17.7834 12.7404 17.4878 12.2032 16.975 12.0713Z" fill="url(#paint76_linear_1507_2905)"/>
  <defs>
    <linearGradient id="paint0_linear_1507_2905" x1="25.7651" y1="24.3479" x2="25.7651" y2="36.5345" gradientUnits="userSpaceOnUse">
      <stop stop-color="#5A5A5A"/>
      <stop offset="1" stop-color="#444444"/>
    </linearGradient>
    <linearGradient id="paint1_linear_1507_2905" x1="25.765" y1="26.9144" x2="25.765" y2="29.931" gradientUnits="userSpaceOnUse">
      <stop stop-color="#433F43" stop-opacity="0"/>
      <stop offset="0.411" stop-color="#373537" stop-opacity="0.269"/>
      <stop offset="1" stop-color="#1A1A1A"/>
    </linearGradient>
    <linearGradient id="paint2_linear_1507_2905" x1="14.5411" y1="33.9251" x2="13.7871" y2="33.2054" gradientUnits="userSpaceOnUse">
      <stop stop-color="#5A5A5A"/>
      <stop offset="1" stop-color="#444444"/>
    </linearGradient>
    <linearGradient id="paint3_linear_1507_2905" x1="19.1688" y1="34.2632" x2="18.312" y2="33.5435" gradientUnits="userSpaceOnUse">
      <stop stop-color="#5A5A5A"/>
      <stop offset="1" stop-color="#444444"/>
    </linearGradient>
    <linearGradient id="paint4_linear_1507_2905" x1="23.595" y1="34.2032" x2="22.7725" y2="33.3807" gradientUnits="userSpaceOnUse">
      <stop stop-color="#5A5A5A"/>
      <stop offset="1" stop-color="#444444"/>
    </linearGradient>
    <linearGradient id="paint5_linear_1507_2905" x1="28.2881" y1="34.259" x2="27.4314" y2="33.4365" gradientUnits="userSpaceOnUse">
      <stop stop-color="#5A5A5A"/>
      <stop offset="1" stop-color="#444444"/>
    </linearGradient>
    <linearGradient id="paint6_linear_1507_2905" x1="32.8146" y1="34.2022" x2="32.095" y2="33.4825" gradientUnits="userSpaceOnUse">
      <stop stop-color="#5A5A5A"/>
      <stop offset="1" stop-color="#444444"/>
    </linearGradient>
    <linearGradient id="paint7_linear_1507_2905" x1="37.4701" y1="34.22" x2="36.6819" y2="33.4661" gradientUnits="userSpaceOnUse">
      <stop stop-color="#5A5A5A"/>
      <stop offset="1" stop-color="#444444"/>
    </linearGradient>
    <linearGradient id="paint8_linear_1507_2905" x1="25.7651" y1="32.0548" x2="25.7651" y2="34.8018" gradientUnits="userSpaceOnUse">
      <stop stop-color="#433F43" stop-opacity="0"/>
      <stop offset="0.411" stop-color="#373537" stop-opacity="0.269"/>
      <stop offset="1" stop-color="#1A1A1A"/>
    </linearGradient>
    <linearGradient id="paint9_linear_1507_2905" x1="25.7651" y1="29.9986" x2="25.7651" y2="29.1986" gradientUnits="userSpaceOnUse">
      <stop stop-color="#5A5A5A"/>
      <stop offset="1" stop-color="#444444"/>
    </linearGradient>
    <linearGradient id="paint10_linear_1507_2905" x1="14.5411" y1="25.2672" x2="13.7871" y2="25.9869" gradientUnits="userSpaceOnUse">
      <stop stop-color="#5A5A5A"/>
      <stop offset="1" stop-color="#444444"/>
    </linearGradient>
    <linearGradient id="paint11_linear_1507_2905" x1="19.1688" y1="24.9292" x2="18.312" y2="25.6489" gradientUnits="userSpaceOnUse">
      <stop stop-color="#5A5A5A"/>
      <stop offset="1" stop-color="#444444"/>
    </linearGradient>
    <linearGradient id="paint12_linear_1507_2905" x1="23.595" y1="24.9893" x2="22.7725" y2="25.8118" gradientUnits="userSpaceOnUse">
      <stop stop-color="#5A5A5A"/>
      <stop offset="1" stop-color="#444444"/>
    </linearGradient>
    <linearGradient id="paint13_linear_1507_2905" x1="28.2881" y1="24.9334" x2="27.4314" y2="25.7559" gradientUnits="userSpaceOnUse">
      <stop stop-color="#5A5A5A"/>
      <stop offset="1" stop-color="#444444"/>
    </linearGradient>
    <linearGradient id="paint14_linear_1507_2905" x1="32.8146" y1="24.9903" x2="32.095" y2="25.7101" gradientUnits="userSpaceOnUse">
      <stop stop-color="#5A5A5A"/>
      <stop offset="1" stop-color="#444444"/>
    </linearGradient>
    <linearGradient id="paint15_linear_1507_2905" x1="37.4701" y1="24.9725" x2="36.6819" y2="25.7265" gradientUnits="userSpaceOnUse">
      <stop stop-color="#5A5A5A"/>
      <stop offset="1" stop-color="#444444"/>
    </linearGradient>
    <linearGradient id="paint16_linear_1507_2905" x1="36.573" y1="29.5963" x2="40.5484" y2="29.5963" gradientUnits="userSpaceOnUse">
      <stop stop-color="#433F43" stop-opacity="0"/>
      <stop offset="0.411" stop-color="#373537" stop-opacity="0.269"/>
      <stop offset="1" stop-color="#1A1A1A"/>
    </linearGradient>
    <linearGradient id="paint17_linear_1507_2905" x1="30.3252" y1="33.3334" x2="25.1299" y2="29.0756" gradientUnits="userSpaceOnUse">
      <stop stop-color="#433F43" stop-opacity="0"/>
      <stop offset="0.411" stop-color="#373537" stop-opacity="0.269"/>
      <stop offset="1" stop-color="#1A1A1A"/>
    </linearGradient>
    <linearGradient id="paint18_linear_1507_2905" x1="25.7651" y1="15.1342" x2="25.7651" y2="25.6418" gradientUnits="userSpaceOnUse">
      <stop stop-color="#5A5A5A"/>
      <stop offset="1" stop-color="#444444"/>
    </linearGradient>
    <linearGradient id="paint19_linear_1507_2905" x1="25.765" y1="16.2422" x2="25.765" y2="19.2588" gradientUnits="userSpaceOnUse">
      <stop stop-color="#433F43" stop-opacity="0"/>
      <stop offset="0.411" stop-color="#373537" stop-opacity="0.269"/>
      <stop offset="1" stop-color="#1A1A1A"/>
    </linearGradient>
    <linearGradient id="paint20_linear_1507_2905" x1="14.5411" y1="23.2533" x2="13.7871" y2="22.5336" gradientUnits="userSpaceOnUse">
      <stop stop-color="#5A5A5A"/>
      <stop offset="1" stop-color="#444444"/>
    </linearGradient>
    <linearGradient id="paint21_linear_1507_2905" x1="19.1688" y1="23.5914" x2="18.312" y2="22.8717" gradientUnits="userSpaceOnUse">
      <stop stop-color="#5A5A5A"/>
      <stop offset="1" stop-color="#444444"/>
    </linearGradient>
    <linearGradient id="paint22_linear_1507_2905" x1="23.595" y1="23.5312" x2="22.7725" y2="22.7087" gradientUnits="userSpaceOnUse">
      <stop stop-color="#5A5A5A"/>
      <stop offset="1" stop-color="#444444"/>
    </linearGradient>
    <linearGradient id="paint23_linear_1507_2905" x1="28.2881" y1="23.5869" x2="27.4314" y2="22.7644" gradientUnits="userSpaceOnUse">
      <stop stop-color="#5A5A5A"/>
      <stop offset="1" stop-color="#444444"/>
    </linearGradient>
    <linearGradient id="paint24_linear_1507_2905" x1="32.8146" y1="23.5302" x2="32.095" y2="22.8105" gradientUnits="userSpaceOnUse">
      <stop stop-color="#5A5A5A"/>
      <stop offset="1" stop-color="#444444"/>
    </linearGradient>
    <linearGradient id="paint25_linear_1507_2905" x1="37.4701" y1="23.548" x2="36.6819" y2="22.794" gradientUnits="userSpaceOnUse">
      <stop stop-color="#5A5A5A"/>
      <stop offset="1" stop-color="#444444"/>
    </linearGradient>
    <linearGradient id="paint26_linear_1507_2905" x1="25.7651" y1="20.9374" x2="25.7651" y2="24.9999" gradientUnits="userSpaceOnUse">
      <stop stop-color="#433F43" stop-opacity="0"/>
      <stop offset="0.411" stop-color="#373537" stop-opacity="0.269"/>
      <stop offset="1" stop-color="#1A1A1A"/>
    </linearGradient>
    <linearGradient id="paint27_linear_1507_2905" x1="25.7651" y1="19.3266" x2="25.7651" y2="18.5265" gradientUnits="userSpaceOnUse">
      <stop stop-color="#5A5A5A"/>
      <stop offset="1" stop-color="#444444"/>
    </linearGradient>
    <linearGradient id="paint28_linear_1507_2905" x1="14.5411" y1="14.5952" x2="13.7871" y2="15.3149" gradientUnits="userSpaceOnUse">
      <stop stop-color="#5A5A5A"/>
      <stop offset="1" stop-color="#444444"/>
    </linearGradient>
    <linearGradient id="paint29_linear_1507_2905" x1="19.1688" y1="14.2572" x2="18.312" y2="14.9769" gradientUnits="userSpaceOnUse">
      <stop stop-color="#5A5A5A"/>
      <stop offset="1" stop-color="#444444"/>
    </linearGradient>
    <linearGradient id="paint30_linear_1507_2905" x1="23.595" y1="14.3173" x2="22.7725" y2="15.1398" gradientUnits="userSpaceOnUse">
      <stop stop-color="#5A5A5A"/>
      <stop offset="1" stop-color="#444444"/>
    </linearGradient>
    <linearGradient id="paint31_linear_1507_2905" x1="28.2881" y1="14.2613" x2="27.4314" y2="15.0838" gradientUnits="userSpaceOnUse">
      <stop stop-color="#5A5A5A"/>
      <stop offset="1" stop-color="#444444"/>
    </linearGradient>
    <linearGradient id="paint32_linear_1507_2905" x1="32.8146" y1="14.3183" x2="32.095" y2="15.038" gradientUnits="userSpaceOnUse">
      <stop stop-color="#5A5A5A"/>
      <stop offset="1" stop-color="#444444"/>
    </linearGradient>
    <linearGradient id="paint33_linear_1507_2905" x1="37.4701" y1="14.3005" x2="36.6819" y2="15.0544" gradientUnits="userSpaceOnUse">
      <stop stop-color="#5A5A5A"/>
      <stop offset="1" stop-color="#444444"/>
    </linearGradient>
    <linearGradient id="paint34_linear_1507_2905" x1="36.573" y1="18.9242" x2="40.5484" y2="18.9242" gradientUnits="userSpaceOnUse">
      <stop stop-color="#433F43" stop-opacity="0"/>
      <stop offset="0.411" stop-color="#373537" stop-opacity="0.269"/>
      <stop offset="1" stop-color="#1A1A1A"/>
    </linearGradient>
    <linearGradient id="paint35_linear_1507_2905" x1="33.3103" y1="17.6068" x2="28.3884" y2="18.4661" gradientUnits="userSpaceOnUse">
      <stop stop-color="#433F43" stop-opacity="0"/>
      <stop offset="0.411" stop-color="#373537" stop-opacity="0.269"/>
      <stop offset="1" stop-color="#1A1A1A"/>
    </linearGradient>
    <linearGradient id="paint36_linear_1507_2905" x1="6.2682" y1="11.336" x2="22.5453" y2="27.613" gradientUnits="userSpaceOnUse">
      <stop stop-color="#5A5A5A"/>
      <stop offset="1" stop-color="#444444"/>
    </linearGradient>
    <linearGradient id="paint37_linear_1507_2905" x1="25.732" y1="12.185" x2="22.0651" y2="8.51806" gradientUnits="userSpaceOnUse">
      <stop stop-color="#5A5A5A"/>
      <stop offset="1" stop-color="#444444"/>
    </linearGradient>
    <linearGradient id="paint38_linear_1507_2905" x1="30.0742" y1="21.3845" x2="26.6404" y2="17.9507" gradientUnits="userSpaceOnUse">
      <stop stop-color="#5A5A5A"/>
      <stop offset="1" stop-color="#444444"/>
    </linearGradient>
    <linearGradient id="paint39_linear_1507_2905" x1="25.826" y1="30.8932" x2="22.6218" y2="27.6892" gradientUnits="userSpaceOnUse">
      <stop stop-color="#5A5A5A"/>
      <stop offset="1" stop-color="#444444"/>
    </linearGradient>
    <linearGradient id="paint40_linear_1507_2905" x1="15.9785" y1="34.803" x2="13.1484" y2="31.973" gradientUnits="userSpaceOnUse">
      <stop stop-color="#5A5A5A"/>
      <stop offset="1" stop-color="#444444"/>
    </linearGradient>
    <linearGradient id="paint41_linear_1507_2905" x1="6.59637" y1="30.2785" x2="4.01184" y2="27.694" gradientUnits="userSpaceOnUse">
      <stop stop-color="#5A5A5A"/>
      <stop offset="1" stop-color="#444444"/>
    </linearGradient>
    <linearGradient id="paint42_linear_1507_2905" x1="2.87914" y1="21.7042" x2="0.00703032" y2="18.832" gradientUnits="userSpaceOnUse">
      <stop stop-color="#5A5A5A"/>
      <stop offset="1" stop-color="#444444"/>
    </linearGradient>
    <linearGradient id="paint43_linear_1507_2905" x1="6.55457" y1="11.6224" x2="3.64418" y2="8.71205" gradientUnits="userSpaceOnUse">
      <stop stop-color="#5A5A5A"/>
      <stop offset="1" stop-color="#444444"/>
    </linearGradient>
    <linearGradient id="paint44_linear_1507_2905" x1="16.4025" y1="7.71251" x2="13.2462" y2="4.55619" gradientUnits="userSpaceOnUse">
      <stop stop-color="#5A5A5A"/>
      <stop offset="1" stop-color="#444444"/>
    </linearGradient>
    <linearGradient id="paint45_linear_1507_2905" x1="25.732" y1="12.185" x2="22.0651" y2="8.51806" gradientUnits="userSpaceOnUse">
      <stop stop-color="#433F43" stop-opacity="0"/>
      <stop offset="0.411" stop-color="#373537" stop-opacity="0.269"/>
      <stop offset="1" stop-color="#1A1A1A"/>
    </linearGradient>
    <linearGradient id="paint46_linear_1507_2905" x1="30.0742" y1="21.3845" x2="26.6404" y2="17.9507" gradientUnits="userSpaceOnUse">
      <stop stop-color="#433F43" stop-opacity="0"/>
      <stop offset="0.411" stop-color="#373537" stop-opacity="0.269"/>
      <stop offset="1" stop-color="#1A1A1A"/>
    </linearGradient>
    <linearGradient id="paint47_linear_1507_2905" x1="25.826" y1="30.8932" x2="22.6218" y2="27.6892" gradientUnits="userSpaceOnUse">
      <stop stop-color="#433F43" stop-opacity="0"/>
      <stop offset="0.411" stop-color="#373537" stop-opacity="0.269"/>
      <stop offset="1" stop-color="#1A1A1A"/>
    </linearGradient>
    <linearGradient id="paint48_linear_1507_2905" x1="15.9785" y1="34.803" x2="13.1484" y2="31.973" gradientUnits="userSpaceOnUse">
      <stop stop-color="#433F43" stop-opacity="0"/>
      <stop offset="0.411" stop-color="#373537" stop-opacity="0.269"/>
      <stop offset="1" stop-color="#1A1A1A"/>
    </linearGradient>
    <linearGradient id="paint49_linear_1507_2905" x1="6.03535" y1="29.6618" x2="2.80621" y2="27.2139" gradientUnits="userSpaceOnUse">
      <stop stop-color="#433F43" stop-opacity="0"/>
      <stop offset="0.411" stop-color="#373537" stop-opacity="0.269"/>
      <stop offset="1" stop-color="#1A1A1A"/>
    </linearGradient>
    <linearGradient id="paint50_linear_1507_2905" x1="25.3071" y1="20" x2="2.53769" y2="20" gradientUnits="userSpaceOnUse">
      <stop stop-color="#5A5A5A"/>
      <stop offset="1" stop-color="#444444"/>
    </linearGradient>
    <linearGradient id="paint51_linear_1507_2905" x1="14.9323" y1="25.2345" x2="14.9323" y2="34.8191" gradientUnits="userSpaceOnUse">
      <stop stop-color="#433F43" stop-opacity="0"/>
      <stop offset="0.411" stop-color="#373537" stop-opacity="0.269"/>
      <stop offset="1" stop-color="#1A1A1A"/>
    </linearGradient>
    <linearGradient id="paint52_linear_1507_2905" x1="18.6363" y1="23.7075" x2="25.4136" y2="30.4849" gradientUnits="userSpaceOnUse">
      <stop stop-color="#433F43" stop-opacity="0"/>
      <stop offset="0.411" stop-color="#373537" stop-opacity="0.269"/>
      <stop offset="1" stop-color="#1A1A1A"/>
    </linearGradient>
    <linearGradient id="paint53_linear_1507_2905" x1="20.1664" y1="20" x2="29.7511" y2="20" gradientUnits="userSpaceOnUse">
      <stop stop-color="#433F43" stop-opacity="0"/>
      <stop offset="0.411" stop-color="#373537" stop-opacity="0.269"/>
      <stop offset="1" stop-color="#1A1A1A"/>
    </linearGradient>
    <linearGradient id="paint54_linear_1507_2905" x1="24.2236" y1="29.2917" x2="26.0429" y2="31.111" gradientUnits="userSpaceOnUse">
      <stop stop-color="#5A5A5A" stop-opacity="0"/>
      <stop offset="0.233" stop-color="#5A5A5A" stop-opacity="0.039"/>
      <stop offset="0.438" stop-color="#5A5A5A" stop-opacity="0.157"/>
      <stop offset="0.631" stop-color="#5A5A5A" stop-opacity="0.357"/>
      <stop offset="0.817" stop-color="#5A5A5A" stop-opacity="0.636"/>
      <stop offset="0.997" stop-color="#5A5A5A" stop-opacity="0.993"/>
      <stop offset="1" stop-color="#5A5A5A"/>
    </linearGradient>
    <linearGradient id="paint55_linear_1507_2905" x1="14.9318" y1="23.125" x2="14.9318" y2="29.1097" gradientUnits="userSpaceOnUse">
      <stop stop-color="white" stop-opacity="0"/>
      <stop offset="0.127" stop-color="white" stop-opacity="0.019"/>
      <stop offset="0.261" stop-color="white" stop-opacity="0.076"/>
      <stop offset="0.397" stop-color="white" stop-opacity="0.17"/>
      <stop offset="0.536" stop-color="white" stop-opacity="0.303"/>
      <stop offset="0.677" stop-color="white" stop-opacity="0.474"/>
      <stop offset="0.819" stop-color="white" stop-opacity="0.683"/>
      <stop offset="0.96" stop-color="white" stop-opacity="0.925"/>
      <stop offset="1" stop-color="white"/>
    </linearGradient>
    <linearGradient id="paint56_linear_1507_2905" x1="17.6474" y1="22.7151" x2="14.32" y2="19.3877" gradientUnits="userSpaceOnUse">
      <stop stop-color="white" stop-opacity="0"/>
      <stop offset="0.127" stop-color="white" stop-opacity="0.019"/>
      <stop offset="0.261" stop-color="white" stop-opacity="0.076"/>
      <stop offset="0.397" stop-color="white" stop-opacity="0.17"/>
      <stop offset="0.536" stop-color="white" stop-opacity="0.303"/>
      <stop offset="0.677" stop-color="white" stop-opacity="0.474"/>
      <stop offset="0.819" stop-color="white" stop-opacity="0.683"/>
      <stop offset="0.96" stop-color="white" stop-opacity="0.925"/>
      <stop offset="1" stop-color="white"/>
    </linearGradient>
    <linearGradient id="paint57_linear_1507_2905" x1="14.9327" y1="21.1864" x2="14.9327" y2="23.1519" gradientUnits="userSpaceOnUse">
      <stop stop-color="white" stop-opacity="0"/>
      <stop offset="0.127" stop-color="white" stop-opacity="0.019"/>
      <stop offset="0.261" stop-color="white" stop-opacity="0.076"/>
      <stop offset="0.397" stop-color="white" stop-opacity="0.17"/>
      <stop offset="0.536" stop-color="white" stop-opacity="0.303"/>
      <stop offset="0.677" stop-color="white" stop-opacity="0.474"/>
      <stop offset="0.819" stop-color="white" stop-opacity="0.683"/>
      <stop offset="0.96" stop-color="white" stop-opacity="0.925"/>
      <stop offset="1" stop-color="white"/>
    </linearGradient>
    <linearGradient id="paint58_linear_1507_2905" x1="15.3287" y1="20.2791" x2="17.6978" y2="21.8668" gradientUnits="userSpaceOnUse">
      <stop stop-color="white" stop-opacity="0"/>
      <stop offset="0.127" stop-color="white" stop-opacity="0.019"/>
      <stop offset="0.261" stop-color="white" stop-opacity="0.076"/>
      <stop offset="0.397" stop-color="white" stop-opacity="0.17"/>
      <stop offset="0.536" stop-color="white" stop-opacity="0.303"/>
      <stop offset="0.677" stop-color="white" stop-opacity="0.474"/>
      <stop offset="0.819" stop-color="white" stop-opacity="0.683"/>
      <stop offset="0.96" stop-color="white" stop-opacity="0.925"/>
      <stop offset="1" stop-color="white"/>
    </linearGradient>
    <linearGradient id="paint59_linear_1507_2905" x1="14.5917" y1="11.103" x2="23.7965" y2="20.3078" gradientUnits="userSpaceOnUse">
      <stop stop-color="#5A5A5A"/>
      <stop offset="1" stop-color="#444444"/>
    </linearGradient>
    <linearGradient id="paint60_linear_1507_2905" x1="11.6008" y1="14.094" x2="20.8055" y2="23.2987" gradientUnits="userSpaceOnUse">
      <stop stop-color="#5A5A5A"/>
      <stop offset="1" stop-color="#444444"/>
    </linearGradient>
    <linearGradient id="paint61_linear_1507_2905" x1="7.04684" y1="18.6483" x2="16.2516" y2="27.8531" gradientUnits="userSpaceOnUse">
      <stop stop-color="#5A5A5A"/>
      <stop offset="1" stop-color="#444444"/>
    </linearGradient>
    <linearGradient id="paint62_linear_1507_2905" x1="6.03555" y1="19.6594" x2="15.2404" y2="28.8642" gradientUnits="userSpaceOnUse">
      <stop stop-color="#5A5A5A"/>
      <stop offset="1" stop-color="#444444"/>
    </linearGradient>
    <linearGradient id="paint63_linear_1507_2905" x1="9.02638" y1="16.6687" x2="18.2311" y2="25.8736" gradientUnits="userSpaceOnUse">
      <stop stop-color="#5A5A5A"/>
      <stop offset="1" stop-color="#444444"/>
    </linearGradient>
    <linearGradient id="paint64_linear_1507_2905" x1="13.5808" y1="12.1141" x2="22.7856" y2="21.3188" gradientUnits="userSpaceOnUse">
      <stop stop-color="#5A5A5A"/>
      <stop offset="1" stop-color="#444444"/>
    </linearGradient>
    <linearGradient id="paint65_linear_1507_2905" x1="21.2781" y1="17.4104" x2="18.153" y2="15.243" gradientUnits="userSpaceOnUse">
      <stop stop-color="#433F43" stop-opacity="0"/>
      <stop offset="0.411" stop-color="#373537" stop-opacity="0.269"/>
      <stop offset="1" stop-color="#1A1A1A"/>
    </linearGradient>
    <linearGradient id="paint66_linear_1507_2905" x1="21.7152" y1="23.857" x2="18.4388" y2="22.244" gradientUnits="userSpaceOnUse">
      <stop stop-color="#433F43" stop-opacity="0"/>
      <stop offset="0.411" stop-color="#373537" stop-opacity="0.269"/>
      <stop offset="1" stop-color="#1A1A1A"/>
    </linearGradient>
    <linearGradient id="paint67_linear_1507_2905" x1="16.2329" y1="26.63" x2="12.4021" y2="25.5715" gradientUnits="userSpaceOnUse">
      <stop stop-color="#433F43" stop-opacity="0"/>
      <stop offset="0.411" stop-color="#373537" stop-opacity="0.269"/>
      <stop offset="1" stop-color="#1A1A1A"/>
    </linearGradient>
    <linearGradient id="paint68_linear_1507_2905" x1="11.1616" y1="23.2018" x2="6.62508" y2="23.6554" gradientUnits="userSpaceOnUse">
      <stop stop-color="#433F43" stop-opacity="0"/>
      <stop offset="0.411" stop-color="#373537" stop-opacity="0.269"/>
      <stop offset="1" stop-color="#1A1A1A"/>
    </linearGradient>
    <linearGradient id="paint69_linear_1507_2905" x1="11.0231" y1="17.7671" x2="7.5956" y2="15.751" gradientUnits="userSpaceOnUse">
      <stop stop-color="#433F43" stop-opacity="0"/>
      <stop offset="0.411" stop-color="#373537" stop-opacity="0.269"/>
      <stop offset="1" stop-color="#1A1A1A"/>
    </linearGradient>
    <linearGradient id="paint70_linear_1507_2905" x1="14.9326" y1="15.6651" x2="14.9326" y2="11.5625" gradientUnits="userSpaceOnUse">
      <stop stop-color="#433F43" stop-opacity="0"/>
      <stop offset="0.411" stop-color="#373537" stop-opacity="0.269"/>
      <stop offset="1" stop-color="#1A1A1A"/>
    </linearGradient>
    <linearGradient id="paint71_linear_1507_2905" x1="20.2513" y1="17.6106" x2="21.5618" y2="14.8383" gradientUnits="userSpaceOnUse">
      <stop stop-color="#433F43" stop-opacity="0"/>
      <stop offset="0.411" stop-color="#373537" stop-opacity="0.269"/>
      <stop offset="1" stop-color="#1A1A1A"/>
    </linearGradient>
    <linearGradient id="paint72_linear_1507_2905" x1="20.4702" y1="23.7805" x2="20.4702" y2="20.7058" gradientUnits="userSpaceOnUse">
      <stop stop-color="#433F43" stop-opacity="0"/>
      <stop offset="0.411" stop-color="#373537" stop-opacity="0.269"/>
      <stop offset="1" stop-color="#1A1A1A"/>
    </linearGradient>
    <linearGradient id="paint73_linear_1507_2905" x1="14.9328" y1="26.8552" x2="14.9328" y2="24.3526" gradientUnits="userSpaceOnUse">
      <stop stop-color="#433F43" stop-opacity="0"/>
      <stop offset="0.411" stop-color="#373537" stop-opacity="0.269"/>
      <stop offset="1" stop-color="#1A1A1A"/>
    </linearGradient>
    <linearGradient id="paint74_linear_1507_2905" x1="9.80547" y1="23.6075" x2="8.04125" y2="20.5328" gradientUnits="userSpaceOnUse">
      <stop stop-color="#433F43" stop-opacity="0"/>
      <stop offset="0.411" stop-color="#373537" stop-opacity="0.269"/>
      <stop offset="1" stop-color="#1A1A1A"/>
    </linearGradient>
    <linearGradient id="paint75_linear_1507_2905" x1="9.22896" y1="17.6423" x2="10.7411" y2="13.9627" gradientUnits="userSpaceOnUse">
      <stop stop-color="#433F43" stop-opacity="0"/>
      <stop offset="0.411" stop-color="#373537" stop-opacity="0.269"/>
      <stop offset="1" stop-color="#1A1A1A"/>
    </linearGradient>
    <linearGradient id="paint76_linear_1507_2905" x1="15.5071" y1="13.7818" x2="11.9787" y2="13.6809" gradientUnits="userSpaceOnUse">
      <stop stop-color="#433F43" stop-opacity="0"/>
      <stop offset="0.411" stop-color="#373537" stop-opacity="0.269"/>
      <stop offset="1" stop-color="#1A1A1A"/>
    </linearGradient>
  </defs>
</svg>