<svg xmlns="http://www.w3.org/2000/svg" width="20" height="20" viewBox="0 0 20 20" fill="none">
  <path d="M8.07849 13.2679C7.98323 13.0763 6.51481 10.1393 5.01235 9.76981C4.50586 9.65613 4.10007 9.75648 4.10007 9.75648C3.54235 9.91841 3.13586 10.4017 2.97726 10.8237C2.65972 11.7631 3.14796 12.4795 3.62498 13.1507C4.57902 14.4928 5.50498 15.8182 6.45902 17.1605C6.78463 17.6061 7.11568 18.0742 7.63902 18.2556C8.31972 18.4937 9.09744 18.1577 9.56042 17.6126C10.046 17.0619 10.2785 16.3586 10.5166 15.6779L10.9417 14.4965C11.4288 13.18 11.9669 11.8751 12.5329 10.5868C13.0988 9.29858 13.6931 8.02771 14.338 6.76788C14.9829 5.50806 15.6332 4.27104 16.3567 3.03964C16.5432 2.73034 16.7073 2.42665 16.8938 2.11735C16.9278 2.06121 17.1594 1.74069 17.1201 1.67876C17.0808 1.61665 16.7706 1.81297 16.7031 1.82964C16.1281 2.1156 15.5753 2.49157 15.079 2.90157C14.069 3.74928 13.2446 4.76648 12.4539 5.82332C10.7859 8.17555 9.32204 10.6661 8.07849 13.2679Z" fill="#FF541A"/>
</svg>