<svg xmlns="http://www.w3.org/2000/svg" width="48" height="48" viewBox="0 0 48 48" fill="none">
  <path d="M40.3633 8.3632C37.6821 8.0779 35.0432 7.48146 32.5 6.58592C30.1661 5.76132 27.9274 4.68878 25.8223 3.3867C25.2729 3.05327 24.6426 2.87695 24 2.87695C23.3574 2.87695 22.7271 3.05327 22.1777 3.3867L22.1757 3.3887C20.071 4.68972 17.833 5.76157 15.5 6.58592C12.9574 7.48127 10.3192 8.07773 7.63868 8.36326C6.77764 8.45144 5.97995 8.85601 5.4001 9.49863C4.82026 10.1412 4.49952 10.9762 4.5 11.8417V22.2323C4.50141 26.0661 5.52735 29.8298 7.47163 33.1339C9.41592 36.438 12.2079 39.1625 15.5586 41.0253L22.2988 44.7713C22.8179 45.0633 23.4035 45.2166 23.999 45.2166C24.5946 45.2166 25.1801 45.0633 25.6992 44.7713L32.4414 41.0253C35.7921 39.1625 38.5841 36.438 40.5284 33.1339C42.4727 29.8298 43.4986 26.0661 43.5 22.2323V11.8417C43.5006 10.9765 43.1801 10.1418 42.6007 9.49916C42.0212 8.85657 41.224 8.4518 40.3633 8.3632ZM31.959 20.3672L24.459 28.3672C24.1028 28.7479 23.612 28.9742 23.0913 28.9979C22.5705 29.0217 22.0611 28.8409 21.6719 28.4942L17.1719 24.4942C16.7756 24.1419 16.5355 23.6467 16.5044 23.1174C16.4732 22.5881 16.6536 22.0682 17.0059 21.6719C17.3581 21.2756 17.8533 21.0355 18.3826 21.0044C18.9119 20.9732 19.4318 21.1536 19.8281 21.5059L22.873 24.211L29.041 17.6328C29.2282 17.4334 29.4542 17.2744 29.7051 17.1656C29.956 17.0567 30.2265 17.0004 30.5 16.9999C30.8899 17.0001 31.2712 17.1143 31.5971 17.3284C31.923 17.5424 32.1792 17.8471 32.3342 18.2048C32.4892 18.5626 32.5363 18.9579 32.4696 19.342C32.403 19.7262 32.2255 20.0826 31.959 20.3672Z" fill="url(#paint0_linear_1098_1874)"/>
  <defs>
    <linearGradient id="paint0_linear_1098_1874" x1="24" y1="2.87695" x2="24" y2="45.2166" gradientUnits="userSpaceOnUse">
      <stop stop-color="#ECF0F0"/>
      <stop offset="1" stop-color="#C8D1D1"/>
    </linearGradient>
  </defs>
</svg>