<svg xmlns="http://www.w3.org/2000/svg" width="48" height="48" viewBox="0 0 48 48" fill="none">
  <path d="M33.3942 23.375C33.3942 27.4107 32.0862 30.6827 30.4712 30.6827C28.8562 30.6827 27.5481 27.4107 27.5481 23.375C27.5481 19.3393 28.8562 16.0673 30.4712 16.0673C32.0862 16.0673 33.3942 19.3393 33.3942 23.375ZM43.625 40.9135C43.625 41.3011 43.471 41.6728 43.1969 41.9469C42.9228 42.221 42.5511 42.375 42.1635 42.375H16.5865C10.4408 42.375 5.625 34.0296 5.625 23.375C5.625 12.7204 10.4408 4.375 16.5865 4.375H29.7404C35.8862 4.375 40.7019 12.7204 40.7019 23.375C40.7019 30.2205 38.7142 36.1141 35.6614 39.4519H42.1635C42.5511 39.4519 42.9228 39.6059 43.1969 39.88C43.471 40.1541 43.625 40.5258 43.625 40.9135ZM10.3512 20.4172C10.6554 20.4177 10.952 20.3225 11.1989 20.145L14.3942 17.8632L16.8204 19.5969C17.1359 19.802 17.5184 19.8775 17.8882 19.8076C18.258 19.7377 18.5866 19.5279 18.8055 19.2218C19.0245 18.9158 19.117 18.537 19.0637 18.1645C19.0104 17.7919 18.8154 17.4543 18.5194 17.2219L15.2438 14.878C14.9959 14.7009 14.6989 14.6057 14.3942 14.6057C14.0896 14.6057 13.7926 14.7009 13.5447 14.878L9.4999 17.7663C9.24779 17.9464 9.05942 18.2019 8.96199 18.496C8.86455 18.7901 8.8631 19.1076 8.95783 19.4026C9.05257 19.6976 9.23859 19.9548 9.48905 20.1372C9.7395 20.3195 10.0414 20.4176 10.3512 20.4172ZM18.8775 29.1663L15.2438 26.5703C14.9959 26.3932 14.6989 26.298 14.3942 26.298C14.0896 26.298 13.7926 26.3932 13.5447 26.5703L10.0096 29.0914C9.84408 29.199 9.70206 29.339 9.59212 29.503C9.48218 29.667 9.40661 29.8516 9.36995 30.0455C9.3333 30.2395 9.33632 30.4389 9.37885 30.6317C9.42138 30.8245 9.50253 31.0067 9.61739 31.1673C9.73226 31.3278 9.87847 31.4635 10.0472 31.566C10.2159 31.6685 10.4037 31.7357 10.5991 31.7637C10.7945 31.7917 10.9936 31.7797 11.1843 31.7286C11.375 31.6776 11.5534 31.5884 11.7087 31.4664L14.3942 29.5555L17.1785 31.5432C17.3337 31.6651 17.5121 31.7543 17.7028 31.8054C17.8935 31.8565 18.0926 31.8684 18.288 31.8404C18.4835 31.8125 18.6712 31.7452 18.8399 31.6427C19.0086 31.5402 19.1549 31.4046 19.2697 31.244C19.3846 31.0834 19.4657 30.9013 19.5083 30.7085C19.5508 30.5157 19.5538 30.3163 19.5172 30.1223C19.4805 29.9283 19.4049 29.7437 19.295 29.5797C19.1851 29.4158 19.043 29.2758 18.8775 29.1682V29.1663ZM35.1737 35.0801C36.8526 31.9743 37.7788 27.8199 37.7788 23.375C37.7788 18.9301 36.8526 14.772 35.1737 11.6699C33.6463 8.85096 31.7171 7.29808 29.7404 7.29808C27.7637 7.29808 25.8344 8.85096 24.3071 11.6699C22.6282 14.772 21.7019 18.9301 21.7019 23.375C21.7019 27.8199 22.6282 31.978 24.3071 35.0801C25.8344 37.899 27.7637 39.4519 29.7404 39.4519C31.7171 39.4519 33.6463 37.899 35.1737 35.0801Z" fill="url(#paint0_linear_1571_893)"/>
  <defs>
    <linearGradient id="paint0_linear_1571_893" x1="24.6126" y1="3.49602" x2="24.6126" y2="42.7847" gradientUnits="userSpaceOnUse">
      <stop stop-color="#DEE4E4"/>
    </linearGradient>
  </defs>
</svg>