<svg xmlns="http://www.w3.org/2000/svg" width="48" height="48" viewBox="0 0 48 48" fill="none">
  <path fill-rule="evenodd" clip-rule="evenodd" d="M29.2359 3.798L31.1399 8.384C32.1259 8.836 33.0679 9.38 33.9519 10.008L38.8759 9.366C39.3739 9.3 39.8719 9.488 40.2019 9.866C42.0319 11.966 43.4379 14.4 44.3399 17.036C44.5039 17.51 44.4179 18.036 44.1119 18.434L41.0939 22.376C41.1959 23.456 41.1959 24.544 41.0939 25.624L44.1119 29.566C44.4179 29.964 44.5039 30.49 44.3399 30.964C43.4379 33.6 42.0319 36.034 40.2019 38.134C39.8719 38.512 39.3739 38.7 38.8759 38.634C38.8759 38.634 33.9519 37.992 33.9539 37.99C33.0699 38.62 32.1259 39.164 31.1399 39.614L29.2359 44.202C29.0439 44.664 28.6319 45.002 28.1399 45.098C25.4059 45.634 22.5939 45.634 19.8599 45.098C19.3679 45.002 18.9559 44.664 18.7639 44.202L16.8599 39.616C15.8739 39.164 14.9319 38.62 14.0479 37.992L9.1239 38.634C8.6259 38.7 8.1279 38.512 7.7979 38.134C5.9679 36.034 4.5619 33.6 3.6599 30.964C3.4959 30.49 3.5819 29.964 3.8879 29.566L6.9059 25.624C6.8039 24.544 6.8039 23.456 6.9059 22.376L3.8879 18.434C3.5819 18.036 3.4959 17.51 3.6599 17.036C4.5619 14.4 5.9679 11.966 7.7979 9.866C8.1279 9.488 8.6259 9.3 9.1239 9.366C9.1239 9.366 14.0479 10.008 14.0459 10.01C14.9299 9.38 15.8739 8.836 16.8599 8.386L18.7639 3.798C18.9559 3.336 19.3679 2.998 19.8599 2.902C22.5939 2.366 25.4059 2.366 28.1399 2.902C28.6319 2.998 29.0439 3.336 29.2359 3.798ZM23.9999 12.5C17.6519 12.5 12.4999 17.652 12.4999 24C12.4999 30.348 17.6519 35.5 23.9999 35.5C30.3479 35.5 35.4999 30.348 35.4999 24C35.4999 17.652 30.3479 12.5 23.9999 12.5Z" fill="url(#paint0_linear_1249_5598)"/>
  <path fill-rule="evenodd" clip-rule="evenodd" d="M18.4395 25.06C17.8535 24.476 17.8535 23.524 18.4395 22.94C19.0235 22.354 19.9755 22.354 20.5595 22.94L22.4995 24.878L27.4395 19.94C28.0235 19.354 28.9755 19.354 29.5595 19.94C30.1455 20.524 30.1455 21.476 29.5595 22.06L23.5595 28.06C22.9735 28.646 22.0255 28.646 21.4395 28.06L18.4395 25.06Z" fill="url(#paint1_linear_1249_5598)"/>
  <defs>
    <linearGradient id="paint0_linear_1249_5598" x1="23.9999" y1="2.5" x2="23.9999" y2="45.5" gradientUnits="userSpaceOnUse">
      <stop stop-color="#ECF0F0"/>
      <stop offset="1" stop-color="#C8D1D1"/>
    </linearGradient>
    <linearGradient id="paint1_linear_1249_5598" x1="23.9995" y1="19.5005" x2="23.9995" y2="28.4995" gradientUnits="userSpaceOnUse">
      <stop stop-color="#ECF0F0"/>
      <stop offset="1" stop-color="#C8D1D1"/>
    </linearGradient>
  </defs>
</svg>