<svg width="24" height="24" viewBox="0 0 24 24" fill="none" xmlns="http://www.w3.org/2000/svg">
<g clip-path="url(#clip0_1315_4394)">
<path d="M18.75 24H5.25C2.3505 24 0 21.6495 0 18.75V5.25C0 2.3505 2.3505 0 5.25 0H18.75C21.6495 0 24 2.3505 24 5.25V18.75C24 21.6495 21.6495 24 18.75 24Z" fill="#41479B"/>
<path d="M23.9998 18.7495V17.597L20.277 15.1579H23.9998V13.8947H13.8945V24H15.1577V16.3341L23.1701 21.5836C23.4539 21.1418 23.673 20.6545 23.8146 20.1354" fill="#F5F5F5"/>
<path d="M0.353016 20.6458C0.480891 20.9758 0.640922 21.2897 0.82964 21.5836L8.84208 16.3341V24H10.1052V13.8947H0V15.1579H3.72276L0 17.597V18.75C0 18.9519 0.0118125 19.1509 0.0339844 19.3469" fill="#F5F5F5"/>
<path d="M0 5.42845V6.40303L3.72276 8.84212H0V10.1053H10.1053V0H8.84212V7.66594L0.82964 2.41641C0.51825 2.90123 0.284672 3.44072 0.145969 4.01719" fill="#F5F5F5"/>
<path d="M23.6398 3.33605C23.5132 3.01266 23.3554 2.70483 23.1701 2.41636L15.1577 7.66594V0H13.8945V10.1053H23.9998V8.84212H20.277L23.9998 6.40303V5.25C23.9998 5.04094 23.9872 4.83478 23.9634 4.63209" fill="#F5F5F5"/>
<path d="M13.8947 0H10.1053V10.1053H0V13.8947H10.1053V24H13.8947V13.8947H24V10.1053H13.8947V0Z" fill="#FF4B55"/>
<path d="M6.48746 15.1579L0.0341797 19.3469C0.0854609 19.7998 0.194211 20.2353 0.353258 20.6458L8.80759 15.1579H6.48746V15.1579Z" fill="#FF4B55"/>
<path d="M16.1465 15.1579L23.8146 20.1354C23.935 19.694 23.9997 19.2296 23.9997 18.75V18.7495L18.4666 15.1579L16.1465 15.1579Z" fill="#FF4B55"/>
<path d="M7.57894 8.84212L0.145969 4.01718C0.0507656 4.41262 0 4.82535 0 5.24999V5.42845L5.25881 8.84212H7.57894Z" fill="#FF4B55"/>
<path d="M17.4783 8.84212L23.9639 4.63209C23.9109 4.18003 23.8007 3.7455 23.6404 3.33609L15.1582 8.84212H17.4783Z" fill="#FF4B55"/>
</g>
<defs>
<clipPath id="clip0_1315_4394">
<rect width="24" height="24" rx="12" fill="white"/>
</clipPath>
</defs>
</svg>
