<svg width="24" height="24" viewBox="0 0 24 24" fill="none" xmlns="http://www.w3.org/2000/svg">
<g clip-path="url(#clip0_1234_8304)">
<path d="M19.1165 0.0129395H4.88353C2.15503 0.201143 0 2.47374 0 5.25V8.00433H24V5.25C24 2.47374 21.8449 0.201143 19.1165 0.0129395Z" fill="#FF4B55"/>
<path d="M0 18.75C0 21.5263 2.15508 23.7989 4.88358 23.9871H19.1164C21.8449 23.7989 24 21.5263 24 18.75V15.9957H0V18.75Z" fill="#FF4B55"/>
<path d="M24 8.00439H0V15.9956H24V8.00439Z" fill="#FF4B55"/>
<path d="M5.21668 3.93082L5.81328 5.71932L7.69894 5.73395C7.94308 5.73583 8.04433 6.04734 7.84793 6.19235L6.33096 7.31231L6.89975 9.10987C6.97338 9.34261 6.70837 9.53512 6.50972 9.39315L4.97559 8.29682L3.44146 9.39315C3.24286 9.53507 2.9778 9.34256 3.05143 9.10987L3.62022 7.31231L2.10325 6.19235C1.90686 6.04734 2.0081 5.73587 2.25224 5.73395L4.1379 5.71932L4.7345 3.93082C4.81183 3.69925 5.13944 3.69925 5.21668 3.93082Z" fill="#FFE15A"/>
<path d="M12.0638 4.37155L12.4916 4.95481L13.182 4.73895C13.2714 4.71101 13.3449 4.81289 13.2902 4.88889L12.8676 5.4759L13.2863 6.06572C13.3405 6.1421 13.2663 6.24347 13.1771 6.21496L12.4881 5.99451L12.0564 6.57486C12.0005 6.65001 11.8811 6.61077 11.8807 6.51714L11.8775 5.79388L11.1921 5.56278C11.1033 5.53287 11.1038 5.40721 11.1927 5.37786L11.8797 5.15136L11.8877 4.42814C11.8888 4.33447 12.0084 4.29602 12.0638 4.37155Z" fill="#FFE15A"/>
<path d="M9.45956 2.633L10.1787 2.71116L10.4855 2.05617C10.5253 1.97135 10.6501 1.98589 10.6692 2.07759L10.8171 2.78557L11.535 2.87489C11.628 2.88647 11.6527 3.00964 11.5714 3.05615L10.9436 3.41553L11.0805 4.12571C11.0982 4.21765 10.9887 4.27926 10.9193 4.21634L10.3834 3.73046L9.75017 4.08009C9.6682 4.12533 9.57577 4.04023 9.61413 3.95481L9.91069 3.29512L9.38242 2.80099C9.31404 2.73709 9.36647 2.62288 9.45956 2.633Z" fill="#FFE15A"/>
<path d="M10.5965 9.64218L10.1687 10.2254L9.47824 10.0096C9.38886 9.98163 9.31533 10.0835 9.37005 10.1595L9.79267 10.7465L9.37399 11.3364C9.31978 11.4127 9.39397 11.5141 9.48321 11.4856L10.1722 11.2651L10.6039 11.8455C10.6598 11.9206 10.7792 11.8814 10.7795 11.7878L10.7827 11.0645L11.4682 10.8334C11.5569 10.8035 11.5565 10.6778 11.4676 10.6485L10.7806 10.422L10.7726 9.69882C10.7715 9.6051 10.6518 9.56665 10.5965 9.64218Z" fill="#FFE15A"/>
<path d="M13.2013 8.00856L12.4821 8.08671L12.1753 7.43172C12.1356 7.3469 12.0108 7.36144 11.9916 7.4531L11.8437 8.16108L11.1258 8.25039C11.0329 8.26197 11.0082 8.38514 11.0894 8.43165L11.7172 8.79103L11.5803 9.50121C11.5626 9.59316 11.6722 9.65476 11.7415 9.59184L12.2774 9.10597L12.9107 9.45559C12.9926 9.50084 13.0851 9.41574 13.0467 9.33031L12.7502 8.67063L13.2784 8.1765C13.3468 8.11264 13.2944 7.99843 13.2013 8.00856Z" fill="#FFE15A"/>
</g>
<defs>
<clipPath id="clip0_1234_8304">
<rect width="24" height="24" rx="12" fill="white"/>
</clipPath>
</defs>
</svg>
